<?xml version="1.0" encoding="UTF-8"?>
<svg width="62px" height="163px" viewBox="0 0 62 163" version="1.1" xmlns="http://www.w3.org/2000/svg" xmlns:xlink="http://www.w3.org/1999/xlink">
    <!-- Generator: Sketch 53.2 (72643) - https://sketchapp.com -->
    <title>Group 3</title>
    <desc>Created with Sketch.</desc>
    <defs>
        <polygon id="path-1" points="0 0.0683275694 49.8182133 0.0683275694 49.8182133 117.885637 0 117.885637"></polygon>
    </defs>
    <g id="Web" stroke="none" stroke-width="1" fill="none" fill-rule="evenodd">
        <g id="quiz_end_1a" transform="translate(-193.000000, -270.000000)">
            <g id="Group-3" transform="translate(193.000000, 271.000000)">
                <path d="M31.0004718,20.9977836 L20.7738014,10.3316694 C18.9304752,8.48979283 18.4736571,5.67453833 19.6399935,3.34429796 L19.6399935,3.34429796 C20.5099522,1.60488107 22.1629661,0.389643551 24.0827022,0.0781750814 C26.0024383,-0.233293388 27.9548773,0.396975788 29.3301583,1.77211272 L31.0004718,3.4413596 L32.6707852,1.77211272 C34.0460662,0.396975788 35.9985052,-0.233293388 37.9182413,0.0781750814 C39.8379774,0.389643551 41.4909913,1.60488107 42.36095,3.34429796 L42.36095,3.34429796 C43.5256541,5.673546 43.0693913,8.48673705 41.2282087,10.3284696 L31.0004718,20.9977836 Z" id="Shape-Copy-2" stroke="#000000" stroke-width="1.5" fill="#FFFFFF" stroke-linecap="round" stroke-linejoin="round"></path>
                <g id="Group-8-Copy-2" transform="translate(0.000000, 41.000000)">
                    <path d="M20.0687598,2.67068327 C20.1515561,2.68399675 20.2423649,2.69731023 20.3438571,2.7106237 L20.3572113,2.68665945 C20.2023022,2.66535788 20.0954683,2.66003249 20.0687598,2.67068327 L20.0687598,2.67068327 Z M22.0158074,2.91831393 C22.2294751,2.94760357 22.4698514,2.987544 22.4538263,2.95292896 C22.2748795,2.91831393 22.0104657,2.8783735 22.0158074,2.91831393 L22.0158074,2.91831393 Z M53.7374586,13.4972019 C53.7241044,13.4918765 53.7321169,13.5264916 53.7401295,13.5584439 C53.8469634,13.750158 54.009885,14.1202726 54.0713145,14.1921654 C54.0259101,14.0616933 53.817584,13.627674 53.7374586,13.4972019 L53.7374586,13.4972019 Z M54.2983365,14.7007401 C54.4986501,15.1187833 54.586788,15.3078346 54.7497097,15.6566477 C54.7684056,15.5847549 54.3517535,14.7167163 54.2983365,14.7007401 L54.2983365,14.7007401 Z M59.0791529,38.9339291 C59.0577861,38.8567109 59.0230651,39.4504919 59.0444319,39.4291904 C59.0711403,39.301381 59.0738112,39.0963535 59.0791529,38.9339291 L59.0791529,38.9339291 Z M59.0177234,39.6395433 C58.9696481,40.2386497 58.9429397,40.611427 58.8788393,41.415561 C58.9509522,41.1998827 59.041761,39.8445708 59.0177234,39.6395433 L59.0177234,39.6395433 Z M57.7757795,46.9326654 C57.6609331,47.1856214 57.5354032,47.4199386 57.522049,47.5051449 C57.6048453,47.3560339 57.7757795,47.0258597 57.7757795,46.9326654 L57.7757795,46.9326654 Z M57.0760175,48.2080964 C57.0626633,48.1734814 56.6219735,48.7486235 56.6246444,48.7912266 C56.7929077,48.5808737 57.0039047,48.3332431 57.0760175,48.2080964 L57.0760175,48.2080964 Z M46.4139958,56.0257695 L46.74251,55.9032855 C46.8520147,55.8207419 46.3712623,56.0177814 46.4139958,56.0257695 L46.4139958,56.0257695 Z M33.2226819,64.4105966 C33.2814405,64.9457984 33.4523747,65.9922376 33.535171,66.3383879 C33.4416913,65.7099919 33.3295158,64.9511237 33.2226819,64.4105966 L33.2226819,64.4105966 Z M38.9489781,58.4940879 C38.7540063,58.5500045 38.4762382,58.6218973 38.4628839,58.6458615 C38.6338182,58.6085838 38.8528276,58.5446791 38.9489781,58.4940879 L38.9489781,58.4940879 Z M52.4047059,53.2645546 C51.9773704,53.5015344 51.5927684,53.7172127 51.2802793,53.8902879 C51.3657464,53.8929506 52.3806683,53.3444354 52.4047059,53.2645546 L52.4047059,53.2645546 Z M36.1659554,59.3248488 C36.2407391,59.2715949 35.8000494,59.402067 35.6878738,59.4446701 C35.6584945,59.4819478 36.0404256,59.37544 36.1659554,59.3248488 L36.1659554,59.3248488 Z M33.692751,77.4072118 C33.6980927,75.0267623 33.7007635,72.8140626 33.7061052,70.4442639 C33.7034344,69.3632097 33.7167886,68.2129254 33.6259798,67.3715137 C33.6286506,67.7735806 33.6473466,67.9999097 33.6660425,68.2235761 C33.6633717,69.1022655 33.6607008,69.8132052 33.6607008,70.5587598 C33.6633717,71.6850799 33.6687133,72.9125824 33.674055,74.0815056 C33.6660425,75.3755754 33.6206381,76.7468634 33.6793967,77.6894575 C33.6847384,77.6042513 33.6874093,77.511057 33.692751,77.4072118 L33.692751,77.4072118 Z M50.6526302,54.2444264 C50.1077774,54.5266721 49.3973321,54.8887986 48.3209807,55.4399765 C48.8685043,55.2455998 50.1505109,54.5825887 50.6526302,54.2444264 L50.6526302,54.2444264 Z M33.8102682,69.3658724 C33.8129391,69.6481181 33.7915723,69.7892409 33.8156099,69.9410145 C33.831635,69.8078798 33.8182808,69.5016698 33.8102682,69.3658724 L33.8102682,69.3658724 Z M33.4416913,64.7114812 C33.4790832,64.9564491 33.5218168,65.3292265 33.5538669,65.2972741 C33.5431835,65.1481632 33.4764124,64.7168066 33.4416913,64.7114812 L33.4416913,64.7114812 Z M33.8583435,71.0380449 C33.850331,71.4427746 33.8369767,71.8128892 33.8102682,72.0099287 C33.7995849,73.1096218 33.8129391,73.9883112 33.8690269,74.5634534 C33.8716977,73.3998556 33.901077,71.911409 33.8583435,71.0380449 L33.8583435,71.0380449 Z M33.8610143,75.1359328 L33.8049266,75.1013178 C33.8022557,75.5033848 33.8022557,75.8175828 33.7995849,76.1770467 C33.8343059,75.9081145 33.8343059,76.2196498 33.8610143,76.3607726 C33.8823811,76.017285 33.8797103,75.3675873 33.8610143,75.1359328 L33.8610143,75.1359328 Z M33.8610143,76.864022 C33.8236225,76.8799982 33.8476601,77.4391642 33.850331,77.580287 C33.850331,77.3060294 33.8797103,77.082363 33.8610143,76.864022 L33.8610143,76.864022 Z M33.8556726,77.798628 C33.8049266,78.0222944 33.7808889,78.978202 33.7915723,79.6305623 C33.8129391,79.6651774 33.8156099,79.4867768 33.8396476,79.5187291 C33.8690269,78.9995036 33.8556726,78.3125282 33.8556726,77.798628 L33.8556726,77.798628 Z M35.4929019,59.7402293 L34.9747576,59.8786894 C34.758419,59.9638957 34.6489142,59.9133044 34.2562997,60.1715859 C33.6313215,60.6535337 33.5966005,61.2260132 33.5431835,61.455005 C33.6099547,60.9996841 33.9064187,60.2674429 34.5874848,60.0198123 C34.9053156,59.9212925 35.1884254,59.8360863 35.4929019,59.7402293 L35.4929019,59.7402293 Z M33.4870957,61.6946475 C33.3749202,62.6132774 33.4790832,63.4546891 33.5725629,63.9499504 C33.4630581,63.2336854 33.4630581,62.0860637 33.4870957,61.6946475 L33.4870957,61.6946475 Z M33.6446757,64.5277552 C33.6847384,64.9191714 33.8049266,65.5848452 33.8716977,65.8910551 C33.831635,65.5795198 33.7061052,64.7088185 33.6446757,64.5277552 L33.6446757,64.5277552 Z M33.9384689,66.3783284 C33.9518231,66.564717 34.0025692,66.9721094 34.0266069,67.0493276 C34.0319486,66.8602762 33.9812025,66.434245 33.9384689,66.3783284 L33.9384689,66.3783284 Z M34.0746821,69.5229714 L34.0746821,70.0235581 C34.1254282,70.1566928 34.1094031,69.5229714 34.0746821,69.5229714 L34.0746821,69.5229714 Z M33.9117604,95.2738966 C33.8877228,95.1380991 33.8636852,95.470936 33.8476601,95.59342 C33.8797103,96.5093871 33.8530018,97.9978337 33.9598357,98.2880675 C33.9411398,97.2496164 33.9224438,96.1765502 33.9117604,95.2738966 L33.9117604,95.2738966 Z M34.0826947,71.2457352 C34.0746821,71.6877426 34.0666696,72.2335951 34.0960489,72.4732377 C34.093378,71.9486867 34.1361116,71.4401119 34.0826947,71.2457352 L34.0826947,71.2457352 Z M34.0399611,101.725607 C34.0453028,102.015841 34.0613279,102.228856 34.0907072,102.244833 C34.0960489,102.031817 34.077353,101.714956 34.0399611,101.725607 L34.0399611,101.725607 Z M34.0907072,72.8327015 C34.0720113,73.2800343 34.0666696,74.1374222 34.0880363,74.4835725 C34.0987197,74.1028071 34.1227574,73.2321058 34.0907072,72.8327015 L34.0907072,72.8327015 Z M34.077353,74.6939254 C34.0666696,74.8137467 34.0720113,75.0746909 34.0479736,75.0347504 C34.0159235,74.9495442 34.0559862,74.3184854 34.0185943,74.2945212 C34.0079109,76.3714234 33.9998984,78.54152 33.989215,80.5465295 C34.0639987,80.3681289 33.9998984,79.1858922 34.0372903,78.7039444 C34.0666696,78.8317538 34.023936,79.5080783 34.0666696,79.5134037 C34.077353,77.8572073 34.1200865,75.9666937 34.077353,74.6939254 L34.077353,74.6939254 Z M34.0479736,79.721094 C34.0319486,80.1018594 34.0372903,80.751557 34.0639987,81.0258146 C34.0666696,80.5225652 34.0880363,79.8915065 34.0479736,79.721094 L34.0479736,79.721094 Z M34.4218922,107.373184 C34.4379173,107.796552 34.5207136,108.621988 34.5954973,108.970801 C34.5474221,108.563408 34.5100302,107.679393 34.4218922,107.373184 L34.4218922,107.373184 Z M34.0559862,81.5982941 C34.0506445,82.4530192 34.0266069,83.494133 34.0613279,84.0479736 C34.0746821,83.3609983 34.0826947,82.1867497 34.0559862,81.5982941 L34.0559862,81.5982941 Z M34.0506445,85.049147 C34.0506445,85.2541746 34.0399611,85.5364203 34.0639987,85.5603845 C34.058657,85.3926347 34.0826947,85.0118693 34.0506445,85.049147 L34.0506445,85.049147 Z M34.0506445,85.9118603 C34.0346194,86.3272407 34.0426319,86.8145139 34.058657,87.1393628 C34.0666696,86.69203 34.1013906,86.1728044 34.0506445,85.9118603 L34.0506445,85.9118603 Z M34.1307699,95.6200469 C34.1147448,94.3153263 34.093378,92.824217 34.077353,91.6632819 C34.0132526,92.6271775 34.0639987,94.291362 34.0720113,95.2978608 C34.0880363,95.505551 34.1067323,95.7638325 34.1174157,95.8969672 C34.1227574,96.1419352 34.1200865,96.4747721 34.1361116,96.6158949 C34.1841868,96.4481451 34.1387824,95.9741854 34.1307699,95.6200469 L34.1307699,95.6200469 Z M34.5581054,106.265502 C34.5447512,106.254852 34.5420804,106.289467 34.5367387,106.324082 C34.5581054,106.635617 34.5874848,106.77674 34.6141932,106.9152 C34.5954973,106.688871 34.5821431,106.390649 34.5581054,106.265502 L34.5581054,106.265502 Z M34.6569268,107.349219 C34.6542559,107.485017 34.7076729,108.121401 34.739723,108.078798 C34.7130146,107.799215 34.6836353,107.450402 34.6569268,107.349219 L34.6569268,107.349219 Z M56.1305377,13.976487 C56.159917,14.1016337 56.5845817,15.0468905 56.6379986,15.0974817 C56.4830895,14.746006 56.2373715,14.1202726 56.1305377,13.976487 L56.1305377,13.976487 Z M54.81381,10.8238559 C54.8885937,11.0182327 55.1396534,11.4895297 55.2571706,11.6599422 C55.1102741,11.3856846 54.8885937,10.8984114 54.81381,10.8238559 L54.81381,10.8238559 Z M55.721898,12.5679213 C55.6818353,12.5998736 55.9435784,13.0445437 56.0557539,13.2841863 C56.2827759,13.758146 56.4777478,14.1655384 56.8142745,14.8711526 C56.491102,14.1069591 56.0797916,13.3108133 55.721898,12.5679213 L55.721898,12.5679213 Z M56.8997416,15.0708548 C56.9531586,15.217303 57.1775097,15.749842 57.2042182,15.7391913 C57.0947135,15.4835725 56.9611711,15.1533983 56.8997416,15.0708548 L56.8997416,15.0708548 Z M57.9440428,17.4965701 C57.8932968,17.4699431 58.010814,17.741538 58.0722435,17.9066251 C58.1016228,17.8959744 58.0161557,17.6669826 57.9440428,17.4965701 L57.9440428,17.4965701 Z M58.430137,18.8039534 C58.3927452,18.7586876 58.622438,19.4376749 58.6357923,19.4243614 C58.6144255,19.3151909 58.4888957,18.9157866 58.430137,18.8039534 L58.430137,18.8039534 Z M56.7902369,51.9411951 C56.7848952,51.9012546 56.4136474,52.3139724 56.368243,52.3672263 C56.4777478,52.28202 56.6753905,52.0743298 56.7902369,51.9411951 L56.7902369,51.9411951 Z M35.5142687,69.7439751 C35.5329646,70.2525499 35.4848894,70.8809459 35.5302938,71.1232512 C35.5463189,70.76645 35.5543314,69.9037368 35.5142687,69.7439751 L35.5142687,69.7439751 Z M35.5196104,73.8498511 C35.5142687,74.1933387 35.508927,74.523513 35.5222813,74.7205524 C35.5329646,74.3291362 35.543648,74.094819 35.5196104,73.8498511 L35.5196104,73.8498511 Z M42.0044272,59.6097572 L42.3489665,59.5139002 C42.4584712,59.4553209 41.9056059,59.6124199 42.0044272,59.6097572 L42.0044272,59.6097572 Z M40.9681385,59.9079791 C41.1310602,59.8653759 41.2005022,59.8493998 41.310007,59.8201101 C41.4408785,59.7482173 40.9547843,59.8893402 40.9681385,59.9079791 L40.9681385,59.9079791 Z M38.8314608,60.5230616 C38.7486646,60.5337124 38.4976049,60.6029425 38.4869216,60.6295695 C38.5750595,60.616256 38.8207774,60.5470259 38.8314608,60.5230616 L38.8314608,60.5230616 Z M35.5009145,79.3882571 C35.4822185,79.5799711 35.5009145,79.9580738 35.4955728,80.253633 C35.5730273,80.3734543 35.5409772,79.3882571 35.5009145,79.3882571 L35.5009145,79.3882571 Z M38.0088399,60.7520534 C37.2690153,60.9810452 36.3342188,61.1940608 36.0057046,61.3484972 C36.7134791,61.1434696 37.5601376,60.9171405 38.0088399,60.7520534 L38.0088399,60.7520534 Z M35.2685508,61.5322231 C35.2578674,61.4310407 35.124325,62.0354725 35.2044504,61.8011553 C35.2044504,61.6973102 35.3139552,61.4789692 35.2685508,61.5322231 L35.2685508,61.5322231 Z M35.5035853,85.5044679 C35.4448267,85.9012095 35.4715352,87.0568192 35.4875602,87.6452748 C35.5222813,87.0594819 35.5035853,86.1967687 35.5035853,85.5044679 L35.5035853,85.5044679 Z M35.5062562,83.6379186 C35.5196104,83.5393989 35.5276229,83.4728315 35.5409772,83.3743118 C35.5356355,82.3651503 35.5703565,81.0684177 35.4929019,80.6104342 C35.4902311,81.7793573 35.4875602,82.9536059 35.4875602,83.7710533 C35.4902311,84.1118783 35.4581809,84.6763697 35.5009145,84.857433 C35.5035853,84.3408701 35.5035853,84.0719379 35.5062562,83.6379186 L35.5062562,83.6379186 Z M35.4822185,65.2972741 C35.4848894,65.4144327 35.5489897,65.813837 35.5756982,65.8031862 C35.543648,65.5768571 35.508927,65.3718296 35.4822185,65.2972741 L35.4822185,65.2972741 Z M35.6558236,66.4741854 C35.7225948,67.0360141 35.7172531,67.5232873 35.7493033,67.8694377 C35.7466324,67.7016879 35.735949,66.5886813 35.6558236,66.4741854 L35.6558236,66.4741854 Z M35.77067,71.4853777 C35.7573158,71.82354 35.7493033,72.6037097 35.7840243,72.7900984 C35.7840243,72.3321148 35.8107327,71.6557902 35.77067,71.4853777 L35.77067,71.4853777 Z M35.7733409,74.8030959 C35.7439616,74.7285405 35.7599866,75.1332702 35.7519741,75.2903692 C35.7866951,75.3489485 35.7786826,74.9708457 35.7733409,74.8030959 L35.7733409,74.8030959 Z M35.7599866,76.3794115 C35.7466324,76.4646177 35.7412907,76.8001173 35.7626575,76.8134308 C35.7786826,76.706923 35.7760117,76.4486416 35.7599866,76.3794115 L35.7599866,76.3794115 Z M35.7599866,78.7571983 C35.7279365,78.7279087 35.735949,79.3669555 35.7519741,79.3989078 C35.77067,79.2631104 35.7626575,78.9302735 35.7599866,78.7571983 L35.7599866,78.7571983 Z M35.7412907,81.3373499 C35.7279365,81.4465204 35.7279365,81.78202 35.7519741,81.7766946 C35.754645,81.5876433 35.7626575,81.3613142 35.7412907,81.3373499 L35.7412907,81.3373499 Z M35.754645,82.4237296 C35.7252656,82.3491741 35.7279365,82.9509432 35.7493033,82.926979 C35.754645,82.7645546 35.7679992,82.5701778 35.754645,82.4237296 L35.754645,82.4237296 Z M35.735949,83.275792 C35.735949,83.494133 35.7199239,83.8269699 35.7466324,83.8562596 C35.7626575,83.7124741 35.754645,83.3583356 35.735949,83.275792 L35.735949,83.275792 Z M35.7466324,86.4417366 C35.7038989,86.3884827 35.7225948,86.944986 35.7439616,87.0142161 C35.7599866,86.883744 35.7519741,86.6068237 35.7466324,86.4417366 L35.7466324,86.4417366 Z M35.7306073,87.7198303 L35.7279365,88.2923098 C35.754645,88.316274 35.77067,87.6932034 35.7306073,87.7198303 L35.7306073,87.7198303 Z M35.7599866,91.4555917 C35.7225948,91.3783735 35.7306073,91.9668291 35.7679992,91.889611 C35.7626575,91.6286668 35.7626575,91.5967145 35.7599866,91.4555917 L35.7599866,91.4555917 Z M35.7813534,93.5324939 C35.7386199,93.5032043 35.754645,94.4963896 35.789366,94.5310046 C35.805391,94.23012 35.7813534,93.8946205 35.7813534,93.5324939 L35.7813534,93.5324939 Z M35.8107327,96.5945934 C35.789366,96.9221049 35.8214161,97.3161838 35.8320995,97.742215 C35.8561371,98.6794837 35.8427829,99.9043235 35.92825,100.53272 C35.8961998,99.4090622 35.8507954,97.9472425 35.8107327,96.5945934 L35.8107327,96.5945934 Z M50.0169686,113.854184 C49.6564042,113.787616 49.7365296,113.843533 49.6216832,113.856846 C49.2504355,113.787616 48.7082535,113.686434 48.5747111,113.721049 C47.0630117,113.481406 45.6474627,113.449454 44.3253934,113.321645 C43.6309731,113.25774 43.0941328,113.180522 42.3489665,113.036736 C41.5583957,112.914252 40.855963,112.884963 40.1775678,112.829046 C39.8837746,112.805082 39.9238373,112.855673 39.6567526,112.831709 C39.2000377,112.791768 38.705931,112.735852 38.2465453,112.629344 C37.8379057,112.562776 37.2342943,112.280531 37.2957237,112.248578 C37.2449776,112.187336 37.0019306,111.598881 36.9191343,111.122258 C36.7936045,110.634985 36.7188208,110.11576 36.6386953,109.660439 C36.6013035,109.380856 36.5505574,109.002753 36.4998113,108.819027 C36.4837862,109.103935 36.6680747,110.142386 36.7027957,110.504513 C36.9218051,111.367226 37.1701939,112.565439 37.4559746,112.424316 C37.5788335,112.512185 37.3598241,112.434967 37.3170905,112.424316 C37.5761627,112.632006 38.0809528,112.725201 38.5536927,112.842359 C37.9634355,112.786443 37.2716861,112.480233 37.1434855,112.448281 C37.1568397,112.490884 36.8577048,111.803908 36.7508709,111.343262 C36.6066452,110.818711 36.4944696,110.267533 36.4063316,109.695054 C36.2674476,108.720507 36.0537798,107.141529 36.0217297,106.116391 C35.858808,104.577354 35.7252656,102.095722 35.7119114,100.343668 C35.6264443,99.6939706 35.666507,98.7753407 35.6371277,97.6277191 C35.6104192,96.8129344 35.5917233,96.1286217 35.5703565,95.4682733 C35.5756982,94.8212384 35.5917233,93.9585251 35.5383063,93.1730301 C35.5890524,92.3901977 35.5249521,91.4609171 35.5009145,90.587553 C35.5383063,90.0310497 35.4955728,89.2801697 35.4902311,88.6517736 C35.4474975,89.1683365 35.474206,89.9884466 35.4795477,90.7153624 L35.4795477,94.0623703 C35.4848894,95.0662063 35.5810399,96.1046575 35.5196104,96.7836447 C35.6371277,99.986867 35.7306073,103.967596 36.0804883,107.49833 C36.1232219,107.929687 36.0377547,107.540933 36.0617924,107.892409 C36.1018551,108.536781 36.2380683,109.585883 36.3342188,109.860141 C36.2994978,109.410145 36.1953347,108.986777 36.1819805,108.613999 C36.3048395,109.242396 36.4063316,110.267533 36.4437235,110.666937 C36.5799367,111.292671 36.7188208,111.968995 36.9405011,112.373725 C36.9832346,112.544138 37.0553475,112.434967 37.0099431,112.573427 C37.1274604,112.560114 37.2022441,112.682598 37.3331156,112.717213 C37.5601376,112.834371 37.8379057,112.916915 38.1316989,112.988808 C38.5777304,113.08999 39.0184201,113.156557 39.7342072,113.22845 C40.4820444,113.310994 41.2325524,113.340283 42.0338065,113.449454 C42.8751234,113.587914 43.4600389,113.699747 44.2212303,113.763652 C45.6715003,113.902112 47.2125791,113.9101 48.8898711,114.232286 C49.2664605,114.352108 49.7712507,114.437314 50.5057336,114.671631 C50.673997,114.7595 50.8395895,114.852694 50.7140597,114.855357 C50.7514515,114.900623 51.4832637,115.260087 50.93574,115.03642 C52.0441416,115.771324 51.5633891,115.672804 52.1563171,116.578121 C51.9266243,116.319839 52.1616588,116.80445 52.0842043,116.831077 C52.0655083,116.839065 51.9880538,116.73522 51.9773704,116.759184 C51.9907246,116.940247 52.0387999,118.02929 51.6889189,117.137287 C51.6809063,117.265096 51.6435145,117.315687 51.6568687,117.579294 C51.6408436,117.683139 51.5874267,117.384917 51.5286681,117.321013 C51.5527057,117.757695 51.4218342,117.592608 51.285621,118 C51.2054956,117.992012 51.2188498,117.909468 51.1948122,117.83225 C51.2562417,117.65385 51.1173576,117.185215 50.8289061,116.926934 C50.5377838,116.650014 50.008956,116.423684 49.3759653,116.277236 C47.8295448,115.891145 46.2136823,115.848542 44.4616066,115.704757 C43.6283023,115.646177 42.6080387,115.494404 41.8628723,115.34263 C41.1257185,115.23346 40.2657057,115.196182 39.386997,115.100325 C38.7700314,115.028432 38.1690908,114.953877 37.5174041,114.780802 C37.1888899,114.684944 36.8523631,114.586425 36.4891279,114.402699 C36.312852,114.325481 36.1285635,114.200334 35.9389334,114.07785 C35.7172531,113.880811 35.4127765,113.553299 35.3299803,113.35626 C34.9774284,112.690586 34.8225193,112.174023 34.6969895,111.620182 C34.63556,111.345925 34.5981681,111.156873 34.5607763,110.874628 C34.408538,109.993276 34.2562997,109.095947 34.1601492,108.211932 C33.9785316,106.656918 33.8556726,104.769068 33.8129391,103.432395 C33.7755472,102.495126 33.7194594,101.259635 33.6660425,100.032133 C33.6286506,98.5143966 33.5779045,96.4161928 33.5325001,94.6987544 C33.5271585,93.5085297 33.5138042,91.2771911 33.5057917,89.6742486 C33.5031208,87.3683545 33.50045,85.4911544 33.4977791,83.1266811 C33.4951083,82.1627854 33.4924374,81.1642748 33.4924374,80.1684268 C33.5111334,77.580287 33.5298293,75.396877 33.5511961,72.784773 C33.50045,70.417637 33.6553591,67.8694377 33.2814405,65.7818846 C33.1452273,64.9378103 32.9903182,64.0245058 32.9208762,63.0339832 C32.9021802,62.5254084 32.8861551,62.0035202 32.992989,61.3831122 C33.0517477,61.0689142 33.1532399,60.7094503 33.3936161,60.3153714 C33.5618795,60.1130066 33.6793967,59.9079791 33.9357981,59.75088 C34.1921994,59.5778049 34.4566132,59.4659717 34.5073593,59.4659717 C38.0008274,58.3769293 41.6385212,57.5381803 45.0438512,56.230797 C46.7665476,55.6263652 48.3289932,54.9660168 49.8994513,54.1033035 L52.2497968,52.7932575 C52.9362045,52.3991786 53.5878912,51.8959292 54.202186,51.3314379 C54.8244934,50.7642838 55.4094089,50.1358877 55.9729577,49.4755393 C56.5418481,48.7938893 57.1187511,48.1228902 57.4419236,47.5104703 C58.1710649,46.1711346 58.4995791,44.4803231 58.6945509,42.7735355 C58.8788393,40.9815417 59.0524444,38.9845203 59.1245573,37.1579114 C59.1539366,36.5375034 59.1352407,35.8984565 59.1405824,35.2594097 C59.1138739,31.9523423 58.7025634,28.4136204 57.9146635,24.984069 C57.0599925,21.1551133 55.5750015,17.2649156 53.5932329,13.3667298 C52.7812954,11.7451485 51.8705365,10.1075909 50.9170441,8.44340644 L49.4480782,5.92715949 L48.6975701,4.65439119 C48.4411688,4.22569727 48.1820966,3.75972561 48.0592376,3.63724163 C47.9256953,3.52274574 48.069921,3.58132503 47.7787987,3.50676956 C47.5330808,3.46949183 47.004253,3.45884105 46.5795883,3.44020218 C45.6821837,3.41623793 44.7527289,3.42422601 43.7618446,3.47215453 C42.4691546,3.52807113 41.1310602,3.66653128 39.8170034,3.79700334 C39.2935174,3.84493185 38.6979185,3.90084845 38.1904575,3.94877697 C35.5730273,4.3162289 31.9486878,4.4839787 29.1256024,4.10853868 C27.2560094,3.91682462 25.4692127,3.48014261 23.786579,3.21919848 C22.0585409,2.94227818 20.3171486,2.72659987 18.5730854,2.56417547 C19.1125965,2.58015164 19.7215497,2.62275476 20.0420513,2.60411589 C21.7727603,2.79050456 23.4153312,3.05943677 24.6305667,3.27777778 C24.6332375,3.30440473 24.2860274,3.22718657 24.2539772,3.24848813 C25.7309557,3.51209495 28.137389,4.04729669 29.5502671,4.08457442 C30.2126372,4.20173301 31.5293648,4.262975 32.4508071,4.26830039 C32.4775155,4.23634805 31.9246502,4.25232422 31.8765749,4.22037187 C33.3642368,4.18309414 34.146795,4.16445528 35.3994223,4.13250293 C37.4906956,3.90617384 40.9841636,3.50144417 43.1876125,3.40026176 C43.5962521,3.37896019 43.9888666,3.35765863 44.384152,3.33635707 C44.891613,3.33901977 45.5700081,3.34434516 46.0320647,3.34700785 C46.6223219,3.35233324 47.3861842,3.31239282 47.8135197,3.36298402 C48.1660715,3.45351566 48.0191749,3.35499594 48.3423474,3.75706291 L49.2531063,5.28811265 C50.2920658,7.05347956 51.3470505,8.83482264 52.3272513,10.6800704 C53.0243424,11.984791 53.7187627,13.3614045 54.2769697,14.5143515 C54.9633775,15.9175918 55.6577977,17.5924271 56.1438919,18.8412312 C56.2106631,19.0036556 56.3468763,19.323179 56.4243308,19.5042423 C56.6593654,20.1299756 56.9024125,20.8542287 57.0947135,21.5012637 C57.2923562,22.0977074 57.5086948,22.7979962 57.5995036,23.3145591 C57.55677,23.3971026 57.4045317,22.6781749 57.3377606,22.5583536 C58.7346136,27.5056413 59.426363,33.203809 59.0871654,38.5025724 C59.076482,38.8460601 59.1405824,38.3561242 59.1539366,38.619731 C59.0203942,40.6566928 58.9162312,43.2927611 58.3500116,45.468183 C58.2538611,45.7238018 58.2405069,45.7025002 58.1977733,45.7238018 C58.1149771,45.9820832 58.0562184,46.1737973 57.9627388,46.4613684 C57.9119927,46.6876974 58.0909394,46.149833 58.0749144,46.333559 C57.8265256,46.9246773 57.6689456,47.390649 57.4072026,47.8220056 C57.0546508,48.4344255 56.2907885,49.294476 55.7085438,49.9681379 C54.7817599,51.0119144 53.7428003,52.0077624 52.5756401,52.7426663 C51.3176711,53.4695821 49.904793,54.2683906 48.5640278,54.9234137 C45.8638013,56.1642296 42.8404024,57.1973554 40.0386837,57.9881758 C38.8902195,58.3263381 37.5147332,58.6937901 36.5585699,59.0159762 C36.1125385,59.1384601 35.6638361,59.2636068 35.2017796,59.3914162 L34.4619549,59.6017691 C34.0025692,59.7482173 33.4497039,60.2967326 33.3348575,60.6801607 C32.7793213,62.2697897 33.1185188,63.2416734 33.1746066,64.1097121 C33.1665941,63.6011373 33.0490768,62.8049914 33.0837978,62.0780756 C33.1105063,61.673346 33.1398856,61.2526401 33.3642368,60.7360773 C33.4523747,60.493772 33.6633717,60.1955501 33.9224438,59.9638957 C34.0720113,59.8520625 34.2402746,59.75088 34.4058672,59.6683365 L34.6569268,59.593781 C35.2872467,59.4100551 35.9148958,59.2236664 36.539874,59.0426031 C37.7951722,58.6778139 39.0504703,58.3103619 40.3778813,57.9269338 C42.0765401,57.4689503 43.7511612,56.8911454 45.3910614,56.2840509 C47.0469866,55.698258 48.5640278,55.0272588 50.1077774,54.1885098 C51.3443796,53.4908837 52.6370696,52.8731384 53.6226122,52.0743298 C54.6615717,51.2462316 55.6070516,50.2370701 56.4964437,49.1533532 C58.3553533,47.2175738 58.7346136,44.5042874 59.0097109,41.6605289 C59.2367329,38.9685441 59.4183505,35.9144327 59.2661122,33.1265908 C59.303504,33.5978879 59.3542501,34.2076451 59.3943128,34.7135572 C59.4423881,36.7904594 59.3061749,38.8487228 59.1325698,41.0081686 C58.9643065,43.1143605 58.7319428,45.2258778 57.9734222,47.023197 C57.6181995,47.9125372 57.0439674,48.6154888 56.3388637,49.4648885 C55.6658103,50.2690225 54.9607066,51.0252279 54.2048569,51.6935644 C53.4276404,52.3858652 52.6958283,52.8758011 51.7343233,53.3897012 C50.812881,53.9062641 49.8941096,54.4175016 48.9780091,54.8701598 C48.227501,55.2509252 47.004253,55.7568373 46.8012687,55.9139363 C46.4166667,56.0657099 45.9866603,56.2094954 46.0881525,56.1376027 C44.5871364,56.6861179 42.9766156,57.2719108 41.3901324,57.7432079 C41.3500697,57.7884737 40.8800006,57.9162831 40.6129159,58.0174655 C44.3734686,56.9337485 47.8589241,55.7408611 51.058599,53.8716491 C52.7812954,52.9796462 54.0873396,52.0663417 55.3479794,50.7003791 C55.967616,50.0480188 56.5552023,49.3503926 57.1214219,48.6261395 C57.6529205,47.9737792 58.0134849,47.2442007 58.3019364,46.4187652 C58.464858,46.1232061 58.7212594,45.2312032 58.6998926,44.996886 C58.9482814,44.0037007 59.0577861,42.5764961 59.1886576,41.791001 C59.1939993,40.9921924 59.3943128,39.0857027 59.4477298,37.7277281 C59.5679179,37.4082047 59.5385386,35.6055601 59.5278552,34.3700695 C59.5732596,34.8520173 59.5786013,35.5416554 59.5705887,36.1540753 C59.5652471,37.2431176 59.5171718,38.2229894 59.4317047,39.3306706 C59.4049962,39.6342179 59.4317047,39.6635075 59.426363,39.860547 C59.3649335,40.3025544 59.3729461,40.5102446 59.3809586,40.8031411 C59.4290339,40.3185306 59.4397172,40.1960466 59.4877925,39.7487138 C59.4637549,40.5661612 59.3676044,41.764374 59.2287203,42.8773806 C59.2554288,42.3821193 59.3542501,41.4741403 59.3595918,40.9389385 C59.2848081,41.0321329 59.2954915,41.5966242 59.2821373,41.8602311 C59.2100244,42.5631826 59.1459241,43.2421699 59.0203942,43.939796 C58.9482814,44.3445257 58.8521309,44.6853507 58.7666638,45.0607907 C58.5850462,45.8729127 58.2805696,46.7995306 57.9333595,47.5184583 C57.8665883,47.6755574 57.7918046,47.8246683 57.7009958,47.9924181 C57.3511148,48.6021753 56.6673779,49.3450672 56.2079922,49.9548244 C56.2533966,49.9441737 56.5632149,49.5474321 56.5418481,49.6326383 C55.7913401,50.5645816 54.7230012,51.6589494 53.748142,52.4204802 C53.9377722,52.2287661 54.7523805,51.5870566 54.8271643,51.4219695 C54.2288945,51.9731474 53.3929194,52.6681108 52.6958283,53.0888167 C52.7278784,53.1500587 53.3528566,52.6894124 53.5318034,52.5722538 C52.2150758,53.5627764 50.3721913,54.4441285 48.6361406,55.3334687 C48.4224729,55.4373138 48.0378709,55.6263652 47.8028363,55.7408611 C45.6180834,56.6461775 43.091462,57.532855 40.837267,58.1825526 C41.518333,58.0094774 41.5583957,58.0014893 42.2100824,57.8390649 C44.7981333,56.9443993 47.5571184,56.0523964 50.0917523,54.6491561 C51.3657464,53.9355538 52.7278784,53.2858561 53.7801922,52.4497698 C54.8725687,51.592382 55.8314028,50.5645816 56.6940864,49.5154797 C57.3244063,48.7486235 57.9467137,47.9950808 58.3152906,47.0285224 C58.7159177,46.0859283 58.9589648,45.0554653 59.095178,44.1607997 C59.4450589,41.7137828 59.6400308,38.9552306 59.7201562,36.4576225 C59.7308396,35.2886993 59.7041311,34.1410777 59.6400308,32.9828053 C59.6159931,32.487544 59.5812721,31.867136 59.5518928,31.3718747 C59.3863003,29.3642025 59.0390902,27.3884827 58.6304506,25.4154256 C58.5743628,25.1278545 58.4969082,24.7364383 58.4354787,24.4541926 C58.2885821,23.9110028 58.0749144,23.1414839 57.9253469,22.5929687 C57.8158422,22.2015525 57.6956541,21.7808466 57.5808076,21.3734543 C57.4125443,20.8116256 57.1935348,20.2471342 56.9958921,19.6853055 C56.752845,19.0276198 56.5311647,18.3539579 56.2854468,17.7628396 C55.4468008,15.6939254 54.3223742,13.2895117 53.0617343,10.9569907 C52.9041543,10.6827331 52.6878157,10.3046304 52.5222232,10.0170593 C52.2177466,9.4658814 51.8999158,8.88807654 51.5580474,8.27299395 C51.2936335,7.82033577 51.1387244,7.54874086 50.8048685,6.97093601 C50.377533,6.254671 49.95821,5.55438216 49.5468995,4.86474411 C49.416028,4.63575232 49.154285,4.17244336 49.0207426,3.94078888 C48.7483162,3.45884105 48.4625356,3.0434606 48.2007925,2.97156783 C47.9069994,2.84109577 47.161833,2.85707194 46.6249927,2.83577038 C46.3685914,2.82778229 45.9412559,2.81446881 45.6554752,2.80381803 C42.8911485,2.77985378 39.8784329,3.17393267 36.7802502,3.4881307 C35.9148958,3.57333694 35.0174911,3.66120589 34.1334407,3.69315823 C32.1997474,3.76771369 30.1592202,3.64522971 28.1240347,3.35233324 C25.2047988,2.83044499 21.9543779,2.20204892 18.7840823,1.95708096 C18.3033298,1.92512862 17.9881699,1.90116437 17.3658625,1.85323585 C17.2323202,1.83725968 16.9144893,1.78933117 16.6954799,1.75737882 C16.3536114,1.7147757 15.8007461,1.69347414 15.75,1.63489485 C16.0918684,1.61625598 16.4711287,1.64554563 16.5058497,1.60027981 C16.5459124,1.5470259 16.046464,1.5496886 15.9182634,1.49110931 C16.3455989,1.49909739 16.3429281,1.49909739 16.6474046,1.50442278 C16.5565958,1.48045853 16.2761569,1.46714505 16.2441067,1.4405181 C16.1586396,1.39525228 16.4871538,1.41921654 16.5031789,1.39258958 C16.519204,1.35797455 16.0865267,1.30472064 16.0705017,1.26478021 C16.0437932,1.18489936 16.3375864,1.11566928 16.5752918,1.06241538 C16.6287087,1.03046304 16.204044,1.02247495 16.1773355,0.993185306 C16.6954799,0.947919487 16.5726209,0.820110118 17.2136242,0.785495081 C17.0587151,0.745554653 16.9251727,0.710939615 16.7702636,0.670999188 C16.9518812,0.641709541 17.1388405,0.615082589 17.4807089,0.617745284 C17.4486588,0.601769113 17.1495239,0.591118332 17.1361697,0.572479466 C17.4032544,0.527213647 17.7905272,0.508574781 17.846615,0.42603123 C18.161775,0.410055059 18.7733989,0.463308963 19.174026,0.497924 C18.842841,0.423368535 18.1217122,0.407392364 17.7504645,0.346150375 C18.0549411,0.284908385 19.4678192,0.465971658 19.9031673,0.455320877 C19.5292487,0.396741583 18.8214742,0.346150375 18.3193549,0.300884556 C17.7798438,0.221003701 17.6756808,0.167749797 17.5554927,0.0905316364 C17.9828282,0.0878689412 17.9187279,-0.00266269519 18.6478691,0.0612419893 C18.7226528,0.0399404278 18.5009725,0.00266269519 18.6906027,0 C19.0965714,0.0266269519 19.4624775,0.0505912086 19.9565842,0.0798808557 C22.3229548,0.322186118 24.6225541,0.686975359 26.8687366,1.15827241 C27.4563229,1.28075639 28.0358968,1.34466107 28.6688875,1.42454193 C31.2596092,1.76004152 34.0987197,1.85057316 36.7535418,1.51773626 C37.0526767,1.47779583 37.5681501,1.40590306 37.9153603,1.36063724 C39.2160628,1.19821284 40.7224206,1.06774077 42.252816,0.958570268 C43.8686785,0.844074375 45.4791993,0.793483166 47.0496574,0.84673707 C47.4315886,0.862713241 47.8242031,0.854725156 48.3530308,0.953244878 C48.8551501,1.02780034 49.538887,1.36063724 49.9128056,1.77868039 C50.6606427,2.63074285 50.8395895,3.18192075 51.2428874,3.79167795 C51.3417088,3.95676505 51.477922,4.17776875 51.5847558,4.35084394 C51.9266243,4.94462497 52.158988,5.46385053 52.5302357,5.96976261 C54.2716281,9.04517556 56.2961302,12.7143695 57.5995036,15.8004333 C57.7597544,16.1838614 57.5487575,15.7738063 57.626212,15.99481 C57.8158422,16.4794205 57.7063375,16.0613774 57.8291964,16.3436231 C58.4701997,17.8986371 59.1085322,19.54152 59.5892847,21.2057045 C59.9258114,22.3693023 60.3771846,24.0334868 60.7003571,25.6364293 C61.2478807,28.3230887 61.6111159,31.2627042 61.7072664,33.920074 C61.7206207,34.6709541 61.7259624,34.9798267 61.75,36.3697536 C61.7473292,36.6360231 61.7232915,36.6227096 61.7126081,36.8703403 C61.6217993,39.2188374 61.4909278,41.4714776 61.173097,43.9158318 C60.9888086,45.1246954 60.7404198,46.3628486 60.2569965,47.5850257 C59.8243192,48.8178536 58.918902,50.0213918 58.1870899,50.84949 C57.2656477,51.9864609 56.2213465,53.1127809 54.9339981,54.0953155 C53.5691953,55.1257785 52.2417842,55.7222222 50.8903356,56.4890784 C47.2018957,58.4461594 43.283763,59.6097572 39.5819689,60.6535337 C39.282834,60.73874 39.2774923,60.7760177 39.021091,60.8558985 C38.5216426,60.9890333 38.0916362,61.0769022 37.5815044,61.2393267 C37.2503193,61.3458345 37.5307583,61.2047116 37.2503193,61.2925806 C36.7802502,61.4150645 36.5478865,61.4976081 36.4837862,61.5561874 L35.386068,61.8757108 L35.3219677,61.8943497 L35.3032718,61.8996751 L35.3032718,61.9023378 L35.3006009,61.9023378 L35.0949457,61.3724614 L35.0949457,61.3751241 L35.0976166,61.3751241 L35.1002874,61.3831122 L35.1136416,61.393763 C35.089604,61.3511599 35.159046,61.455005 35.2391715,61.516247 C35.3486762,61.5801516 35.6985572,61.7851792 35.5943941,61.7319253 C35.5249521,61.8677227 35.4982436,62.5973012 35.5703565,63.2097211 C35.631786,63.8594187 35.7439616,64.5543822 35.8614788,65.281298 L36.0350839,66.4315823 C36.0911717,66.870927 36.0991842,67.3102717 36.1125385,67.6697355 L36.1445886,69.9410145 C36.1365761,72.9338839 36.1285635,75.9480549 36.120551,78.9808647 C36.120551,80.8314379 36.120551,82.743253 36.1178802,84.7296236 C36.1232219,86.1754671 36.1258927,87.7091795 36.1285635,89.0378644 C36.1285635,90.0017601 36.1258927,90.9736438 36.1258927,91.8869483 C36.1499303,94.8185757 36.1873222,97.8407347 36.2888144,100.455501 C36.3075103,100.719108 36.3368896,101.18508 36.3529147,101.467326 C36.4036608,102.51909 36.4650903,103.71464 36.5238489,104.936817 C36.6119869,106.390649 36.7829211,107.868445 36.8977675,108.922872 C36.9137926,109.090622 36.9431719,109.436772 36.9565262,109.593871 C37.0660309,110.328775 37.2155983,111.21279 37.4452912,111.809234 L37.5681501,112.083491 C37.6135545,112.016924 37.4185827,112.128757 37.3037363,112.22994 C37.1808773,112.33911 37.0740434,112.461594 36.9885763,112.608042 L36.9538553,112.663959 L36.9511845,112.671947 L36.9485136,112.67461 C37.1675231,112.365737 36.4570777,113.369573 37.4399495,111.984972 L37.4426203,111.984972 L37.447962,111.987634 L37.4639871,111.998285 L37.4933664,112.014261 L37.5547959,112.054202 C37.7390844,112.166035 38.0275359,112.26988 38.3159873,112.360412 C39.6193607,112.67461 41.1577687,112.562776 42.8777942,112.892951 C43.3692301,112.98082 43.9781832,113.079339 44.5951489,113.12993 C44.8568919,113.145907 45.2975817,113.175196 45.5219329,113.191172 C45.7863467,113.220462 46.253745,113.271053 46.5181589,113.300343 C47.5998519,113.3962 48.8524792,113.529335 50.0169686,113.854184 L50.0169686,113.854184 Z M39.859737,3.41890062 C39.9906085,3.38961098 40.3992481,3.36830941 40.6422952,3.33901977 C40.4606776,3.38162289 40.1241508,3.39759906 39.859737,3.41890062 L39.859737,3.41890062 Z M39.6514109,3.4295514 C39.3122133,3.50144417 38.601768,3.55203538 37.8646142,3.63191624 C38.1343697,3.56002347 39.2908465,3.46949183 39.6514109,3.4295514 L39.6514109,3.4295514 Z M41.5904459,3.20588501 C41.1657812,3.24848813 41.029568,3.26180161 40.733104,3.29109125 C40.8800006,3.24316274 41.3874615,3.22186118 41.5904459,3.20588501 L41.5904459,3.20588501 Z M57.8211839,24.1373319 L57.7757795,24.1213557 C57.7036666,23.8311219 57.7063375,23.8417727 57.6235412,23.5089358 C57.6609331,23.4583446 57.7383876,23.7831934 57.8211839,24.1373319 L57.8211839,24.1373319 Z M49.346586,4.98456539 C49.2824856,4.93397419 49.0100592,4.47332792 49.0234135,4.4280621 C49.1168931,4.55853416 49.2691314,4.83811716 49.346586,4.98456539 L49.346586,4.98456539 Z M58.2324943,25.9133496 L58.3072781,26.3234046 C58.272557,26.3926347 58.1870899,25.8494449 58.2324943,25.9133496 L58.2324943,25.9133496 Z M48.7082535,3.8209676 C48.7082535,3.86090802 48.7883789,4.01268165 48.7883789,4.05794747 C48.6842159,3.88753498 48.6147738,3.78102717 48.489244,3.57599964 C48.5293067,3.5973012 48.6441532,3.79434064 48.6895576,3.8209676 L48.7082535,3.8209676 Z M39.4671225,3.39227367 C39.5712855,3.39493637 39.7956366,3.36564672 39.8971288,3.34434516 C39.7395489,3.35499594 39.5205394,3.36032133 39.4671225,3.39227367 L39.4671225,3.39227367 Z M40.1989346,3.27511508 C40.3244644,3.28044047 40.1027841,3.3230436 40.2389973,3.33635707 C39.4938309,3.41091254 39.1118998,3.45085297 38.3186582,3.53073382 C38.4041253,3.49079339 38.1183447,3.52540843 38.2038118,3.485468 C38.8848778,3.41357523 39.5499187,3.34434516 40.1989346,3.27511508 L40.1989346,3.27511508 Z M49.3305609,4.86208142 C49.3091941,4.88072028 49.1409307,4.5931492 49.0955263,4.49462948 C49.1489433,4.55054608 49.2290687,4.68634353 49.3305609,4.86208142 L49.3305609,4.86208142 Z M50.5591506,6.96294792 C50.5751756,6.96561061 50.8395895,7.42359419 50.7594641,7.33572525 C50.7033763,7.22655474 50.6659844,7.15998736 50.5591506,6.96294792 L50.5591506,6.96294792 Z M59.2260495,35.9437224 L59.2207078,36.2925354 C59.1966702,36.2765593 59.1939993,35.8638415 59.2260495,35.9437224 L59.2260495,35.9437224 Z M57.8639174,23.8337846 C57.5167073,22.6355718 57.4739738,22.4917863 57.3457731,22.0604296 C56.4243308,18.9637151 55.0889073,15.8270602 53.5371451,12.8155519 C52.6103611,11.0049192 51.6248186,9.26085387 50.604555,7.50347504 C50.0864106,6.62478563 49.5682663,5.74609622 49.0474511,4.85675602 C48.7883789,4.43338749 48.489244,3.89286037 48.296943,3.62659085 C48.0485543,3.34700785 48.1607298,3.40824984 47.8348865,3.32570629 C45.2868983,3.12866685 42.3089038,3.34967055 39.579298,3.62659085 C36.8336672,3.9301381 33.8930645,4.29226464 31.0459415,4.08457442 C28.9199472,3.99670548 26.6657522,3.57599964 24.6973379,3.19257153 C22.6701649,2.83577038 20.6002584,2.56683816 18.4822766,2.3777868 C19.2327846,2.35648524 20.693738,2.52423504 22.0291616,2.70796101 C23.7358329,2.92896471 25.5413256,3.24848813 26.6924607,3.53872191 C28.2709313,3.83428107 30.495747,4.09256251 31.9139668,4.05262208 C34.3310834,4.15912989 36.7909336,3.86090802 39.0638245,3.61327737 C41.3741073,3.36830941 43.6550107,3.16860728 45.903864,3.17126997 C46.4594002,3.17126997 47.0469866,3.18724614 47.5651309,3.21387309 C48.104642,3.27777778 48.0912878,3.27245239 48.2782471,3.46150375 C48.4652064,3.66653128 48.7830372,4.25764961 49.0714887,4.73427205 L49.9448557,6.21739327 C51.0986617,8.18778771 52.2177466,10.1501941 53.2460228,12.1259139 C55.1717035,15.8270602 56.6700488,19.2086831 57.7357168,23.2293528 C57.783792,23.3917772 57.8505632,23.6394079 57.8639174,23.8337846 L57.8639174,23.8337846 Z M55.3640045,16.2184764 C55.302575,16.1385955 55.1770452,15.8190721 55.0675405,15.5741042 C55.1262991,15.653985 55.2544998,15.9708457 55.3640045,16.2184764 L55.3640045,16.2184764 Z M52.3406056,10.0703132 C52.3245805,10.1022655 52.1162544,9.76144056 52.3085554,10.1315552 C51.2455583,8.28630743 50.5938716,7.15998736 49.5495703,5.35734272 C49.6323666,5.43722358 49.7739215,5.7008304 49.7311879,5.54106869 C49.9849184,5.97242531 50.2386489,6.39845654 50.4977211,6.84046394 C50.5698339,7.00555104 50.3802038,6.67803953 50.4496458,6.83780125 C50.585859,7.09341998 50.7007055,7.23720552 50.7674766,7.39430454 C50.8636271,7.53276469 50.7674766,7.34371333 50.8502729,7.46087192 L51.09332,7.89222854 C51.0025112,7.76974456 50.9998403,7.76974456 51.0479156,7.89222854 C51.1787871,8.11855763 51.3043169,8.33157325 51.4485426,8.57387851 C51.4271759,8.34754942 52.2230883,9.73481361 52.3406056,10.0703132 L52.3406056,10.0703132 Z M59.2233786,37.5067244 C59.2153661,37.5919307 59.2100244,37.6584981 59.2046827,37.7090893 L59.1753034,37.6877877 C59.1672908,37.5919307 59.1806451,37.3522881 59.1913285,37.2724073 C59.2153661,37.2697446 59.2126952,37.4215182 59.2233786,37.5067244 L59.2233786,37.5067244 Z M56.5845817,19.2326474 C56.5365064,19.1607546 56.3762556,18.7107591 56.3388637,18.5722989 C56.4002932,18.668156 56.5284939,19.0515841 56.5845817,19.2326474 L56.5845817,19.2326474 Z M59.1379115,31.23874 C58.9990275,30.2482173 58.8387766,28.783735 58.5850462,27.324578 C58.3713784,26.1263652 58.0241683,24.7444264 57.9226761,24.0388122 C58.1844191,24.8376207 58.4194536,26.1210398 58.657159,27.4151097 C58.8815102,28.7038541 59.0791529,29.9606463 59.1379115,31.23874 L59.1379115,31.23874 Z M59.5038176,35.4058579 C59.4851216,35.3845564 59.4904633,35.16089 59.4877925,34.9745013 C59.5064884,34.9958029 59.5091593,35.2194693 59.5038176,35.4058579 L59.5038176,35.4058579 Z M59.5625762,38.5371875 C59.5385386,38.8939886 59.5198427,39.205524 59.4904633,39.5996029 C59.5331969,39.4904323 59.583943,38.6330445 59.5625762,38.5371875 L59.5625762,38.5371875 Z" id="Fill-1" fill="#231F20"></path>
                    <g id="Group-5" transform="translate(0.750000, 3.000000)">
                        <mask id="mask-2" fill="white">
                            <use xlink:href="#path-1"></use>
                        </mask>
                        <g id="Clip-4"></g>
                        <path d="M3.1754386,42.5348729 C3.52091768,43.7378458 4.51417004,45.8731898 5.26180837,46.9984651 C5.3022942,47.0574081 5.32928475,47.0868796 5.33468286,47.0734835 C4.52226721,45.7901337 3.62348178,43.6869405 3.1754386,42.5348729 M5.97705803,48.0647975 C6.09581646,48.2416265 6.33063428,48.5845675 6.46558704,48.731925 C6.52226721,48.7480004 6.00674764,48.0380052 5.97705803,48.0647975 M15.9851552,114.801664 C16.1039136,114.865966 17.6585695,114.879362 17.8421053,114.828456 C17.2375169,114.790947 16.705803,114.823098 15.9851552,114.801664 M18.4790823,114.860607 C18.6707152,114.895437 19.2645074,114.898116 19.3211876,114.857928 C19.099865,114.833815 18.5897436,114.839173 18.4790823,114.860607 M15.6855601,0.353122126 C15.2186235,1.0041743 14.4412955,1.82133855 13.7179487,2.77514338 C13.3373819,3.28151729 13.0026991,3.79860812 12.6626181,4.31569894 C12.0904184,5.19180618 11.5317139,6.07327188 11.0161943,7.03243517 C9.85290148,9.19189217 8.77597841,11.726441 7.85020243,13.9528786 C6.46288799,17.3126294 5.24561404,20.5384187 4.37651822,23.9303202 C3.36707152,27.9304062 2.88933873,31.9090584 3.2780027,36.0243511 C3.59379217,39.2849704 4.37381916,42.4571753 6.09581646,45.5463241 C7.40755735,47.9120815 9.30769231,49.9536526 11.5074224,51.5933395 C15.7395412,54.7333936 20.8731444,56.2793076 26.0688259,56.7187009 C26.4736842,56.7776439 26.8407557,56.8178323 27.4264507,56.9973405 L27.6990553,57.1018303 C27.8178138,57.1580941 27.9932524,57.2545463 28.0553306,57.3000931 C28.1875843,57.3885076 28.3144399,57.4796014 28.4412955,57.5921289 C28.6923077,57.8118255 28.9298246,58.0851067 29.1079622,58.3771424 C29.7935223,59.6524545 29.6801619,60.4696187 29.7746289,61.1983685 C29.82861,62.6853395 29.8852901,64.1857067 29.9365722,65.6860738 C30.0148448,68.6653743 30.0958165,71.6152033 30.168691,74.4659009 C30.2064777,75.5349125 30.2442645,76.732527 30.2793522,77.7988593 C30.3873144,82.4955443 30.4979757,87.4253221 30.6032389,92.1166487 C30.6167341,95.8890004 30.6329285,99.6452767 30.6491228,103.473892 C30.6356275,104.475923 30.6383266,105.335955 30.5492578,106.53089 C30.4062078,107.782089 30.1848853,108.567103 29.7287449,109.780793 C29.2887989,110.940898 28.2253711,112.133154 27.1133603,112.711867 C26.8326586,112.877979 26.5816464,112.995865 26.2739541,113.132506 C25.9014845,113.282542 25.5964912,113.365598 25.2995951,113.435258 C24.7139001,113.577257 24.1821862,113.649597 23.6477733,113.719256 C20.900135,114.062197 18.2064777,114.064877 15.6018893,114.115782 L11.7233468,114.182763 C11.145749,114.204197 10.6707152,114.271177 10.3630229,114.39978 C10.0283401,114.541779 10.0094467,114.60876 9.88259109,114.81774 C9.82321188,114.986531 9.87989204,114.938305 9.79892038,114.831136 L8.52496626,114.177404 C11.3454791,114.239026 14.1363023,114.29529 16.8677463,114.354233 C20.2118758,114.397101 23.5506073,114.439969 26.9055331,114.482836 C28.4871795,114.498911 30.1578947,114.517666 31.7449393,114.533741 C35.0161943,114.576609 38.3090418,114.619477 41.780027,114.667703 C43.3481781,114.694495 44.8434548,114.715929 46.3846154,114.742721 L46.5330634,114.753438 L46.562753,114.756117 C46.7462888,114.777551 47.048583,114.790947 47.291498,114.788268 C47.6936572,114.796306 48.2901484,114.659665 48.3495277,114.590005 C48.3576248,114.555175 48.2442645,114.681099 48.2145749,114.793626 C48.1902834,114.88472 48.2226721,114.892758 48.219973,114.836494 C48.2874494,114.694495 48.3036437,114.906154 48.4358974,114.865966 C48.4520918,114.914192 48.511471,114.852569 48.5492578,114.839173 C48.6167341,114.916871 48.7705803,114.940984 48.7246964,115.072266 C48.9190283,114.994569 48.9109312,115.077625 48.9649123,115.195511 C48.9919028,115.262491 49.1052632,115.23302 49.1403509,115.291963 C49.1916329,115.366981 49.1727395,115.50898 49.1160594,115.653658 C49.1106613,115.71796 48.9244265,115.833167 48.9217274,115.884072 C48.8677463,116.157353 49.7935223,115.750111 49.7098516,115.943015 C49.6882591,116.052863 49.2753036,116.401163 49.2564103,116.430634 C49.2483131,116.470823 49.5991903,116.34222 49.6639676,116.331503 C49.8609987,116.406521 49.0404858,117.038819 49.2591093,117.076328 C49.3103914,117.113837 49.6909582,116.945046 49.7422402,116.950404 C49.9824561,116.945046 49.6369771,117.325496 48.9325236,117.582702 C48.219973,117.83187 47.3292848,117.952435 46.1632928,117.847945 L46.3360324,117.861341 C44.3927126,117.872058 41.7719298,117.799719 39.4480432,117.748814 C37.048583,117.719342 34.1470985,117.679154 31.2726046,117.641645 C30.4385965,117.636286 29.5452092,117.628249 28.7597841,117.620211 C26.6410256,117.59074 24.8326586,117.563947 23.1862348,117.539834 C22.802969,117.545193 22.1255061,117.55591 21.8663968,117.561268 C20.5546559,117.534476 18.9244265,117.502325 17.4210526,117.472854 C14.5951417,117.41659 11.5668016,117.360326 8.47908232,117.301383 L8.34682861,117.298704 C7.88259109,117.290666 7.48043185,117.041498 7.25641026,116.674444 C5.64777328,114.013971 7.93387314,111.723232 9.65047233,111.342782 C11.4615385,110.89803 12.6626181,111.104331 13.9716599,111.023954 C16.5843455,110.973049 19.1268556,110.991803 21.4426451,110.809616 C22.8623482,110.69173 24.4844804,110.549731 25.245614,110.177318 C26.3009447,109.668265 26.7112011,109.127061 27.0755735,107.916051 C27.1376518,107.672241 27.197031,107.447186 27.2564103,107.219452 L27.3346829,106.865794 L27.3751687,106.683606 L27.3940621,106.595192 L27.4048583,106.549645 L27.4102564,106.528211 L27.4102564,106.522853 L27.4102564,106.520173 L27.9689609,106.638059 L27.8879892,106.619305 L27.582996,106.544286 C27.2807018,106.474626 27.4615385,106.506777 27.4102564,106.490702 L27.4102564,106.471947 L27.4129555,106.439797 L27.4156545,106.367457 L27.4237517,106.225458 L27.4480432,105.938781 C27.4561404,105.678896 27.4669366,105.413653 27.4777328,105.108221 C27.5263158,103.848984 27.4993252,102.514729 27.5101215,101.19387 C27.4966262,99.0183376 27.48583,96.8963898 27.4723347,94.6753105 C27.4156545,91.3021637 27.3670715,88.0817328 27.3103914,84.8237927 C27.2564103,82.5062613 27.194332,80.0922777 27.1349528,77.5416535 C27.0863698,76.1082671 27.0377868,74.5409192 26.9892038,73.1075328 C26.9136302,70.1818168 26.8353576,67.092668 26.7516869,63.9392178 L26.6626181,61.6324033 C26.6410256,60.909012 26.51417,60.0275463 26.4331984,60.0061125 C26.414305,59.976641 26.4062078,59.9605656 26.3684211,59.9310941 L26.3360324,59.9069811 L26.3252362,59.8989434 L26.3225371,59.8962642 L26.3198381,59.8935849 C26.2037787,60.0730931 27.34278,58.3181994 26.851552,59.0710622 C26.7813765,59.1701936 26.7192982,59.2746835 26.6707152,59.3845318 C26.3522267,60.1266777 26.4493927,59.9444902 26.3846154,59.941811 C26.1740891,59.882868 25.7881242,59.8266043 25.4291498,59.7864158 C24.7112011,59.7247936 23.7746289,59.6176245 22.9865047,59.4890216 C19.3562753,58.9210255 15.7044534,57.7448448 12.5384615,55.976555 C8.65991903,53.8572864 4.95681511,50.4359134 2.80296896,45.993755 C0.4682861,41.2488439 -0.282051282,35.8019753 0.0904183536,30.5587279 C0.581646424,23.0515337 3.78272605,15.2630207 6.55735493,9.00970473 C7.14844804,7.69956271 7.81241565,6.38674145 8.4682861,5.1837685 C9.08097166,4.05045546 9.8340081,2.65725739 10.7975709,1.49715208 C10.9676113,1.32568155 10.6869096,1.72488638 10.7273954,1.73560329 C10.7705803,1.75167865 11.1538462,1.32836077 11.2078273,1.34979459 C11.2591093,1.36854918 11.1160594,1.64718879 11.0593792,1.81865932 C11.0053981,1.97405449 11.0242915,2.04639362 10.8569501,2.34646705 C12.2442645,0.495121159 11.9662618,1.34711536 12.1659919,1.37122841 C12.1659919,1.44088831 12.5168691,0.969344348 12.5492578,0.996136618 C12.3468286,1.37926609 13.0053981,0.712138551 13.0890688,0.760364638 C13.1160594,0.773760773 12.9649123,1.00149507 12.9595142,1.07919266 C12.951417,1.21851246 13.2240216,0.993457391 12.7597841,1.62039652 C13.0863698,1.32568155 13.5991903,0.838062222 13.8124157,0.744289275 C13.9041835,0.709459324 13.8475034,0.843420676 13.9311741,0.813949179 C14.0310391,0.773760773 14.3549258,0.462970435 14.4736842,0.401348213 C14.6383266,0.31293372 14.5006748,0.559422609 14.8488529,0.240594589 C14.560054,0.725534686 15.3967611,0.0905578744 15.5695007,0.069124058 C15.7152497,0.0503694686 15.5479082,0.369197488 15.6855601,0.353122126" id="Fill-3" fill="#231F20" mask="url(#mask-2)"></path>
                    </g>
                    <path d="M54.5427423,36.3062274 C54.2473371,35.8575143 54.2744385,35.2434858 53.992584,34.7895245 C53.6782078,34.2830822 53.0115134,34.0049325 52.9139484,33.3830318 C51.3800094,33.5194826 49.9815774,34.2489695 48.5804353,34.8603739 C45.3770503,36.2563704 41.9243325,37.1091878 38.4228322,37.3584729 C36.8238499,37.4713072 35.2004763,37.460811 33.6448562,37.0986916 C32.6448147,36.8651508 31.6854253,36.4899112 30.7124852,36.1697766 C29.1406043,35.6554622 27.5253611,35.2802225 25.9128281,34.9076069 C22.785327,34.1807441 19.6605361,33.4565053 16.5357452,32.7322665 C15.2619796,32.4357485 13.9800836,32.1392304 12.6765065,32.0447645 C10.9230462,31.9135618 7.80096542,32.0080277 6.37814215,33.196724 C5.19381117,34.1807441 6.02311387,36.0228296 6.15591071,37.3112399 C6.56785192,41.3732748 6.99876411,44.9524838 9.42704915,48.0698594 C11.6141318,50.8828448 14.7660241,52.7616671 18.0534233,54.0107166 C30.6203405,58.7891181 52.2445439,54.8845264 54.0467868,43.099902 C54.4072353,40.7566222 55.0956108,39.6230311 54.5427423,36.3062274" id="Fill-6" fill="#FF9987"></path>
                </g>
            </g>
        </g>
    </g>
</svg>