<?xml version="1.0" encoding="UTF-8"?>
<svg width="150px" height="26px" viewBox="0 0 150 26" version="1.1" xmlns="http://www.w3.org/2000/svg" xmlns:xlink="http://www.w3.org/1999/xlink">
    <!-- Generator: Sketch 53.2 (72643) - https://sketchapp.com -->
    <title>gpd_hor_coral</title>
    <desc>Created with Sketch.</desc>
    <g id="Symbols" stroke="none" stroke-width="1" fill="none" fill-rule="evenodd">
        <g id="top_nav_non_subscriber—transparent" transform="translate(-50.000000, -18.000000)" fill="#000000" fill-rule="nonzero">
            <g id="gpd_hor_coral" transform="translate(50.000000, 18.000000)">
                <path d="M14.6538462,7.03238866 L13.3238866,7.03238866 C13.3705736,5.9071439 13.0321052,4.79962402 12.3643725,3.89271255 C11.6856476,2.97371908 10.5971877,2.44880417 9.45546559,2.48987854 C7.63460935,2.44057751 5.94758252,3.44239736 5.1194332,5.06477733 C4.26354972,6.66902183 3.84467876,8.47016698 3.9048583,10.2874494 C3.88221125,12.1733542 4.28054863,14.0405607 5.0708502,15.7530364 C6.06072874,17.8299595 7.43927126,18.8744939 9.20647773,18.8744939 C9.83603343,18.8608994 10.4561056,18.7182828 11.0283401,18.4554656 L11.0283401,13.8279352 C11.0283401,12.6133603 10.451417,12.0060729 9.29149798,12.0060729 L9.29149798,10.9615385 C9.86234818,11.0222672 10.5060729,11.0647773 11.2651822,11.0951417 C12.0242915,11.1255061 12.8259109,11.1437247 13.694332,11.1437247 C14.0040486,11.1437247 14.51417,11.1133603 15.2125506,11.0526316 L16.3967611,10.9311741 L16.3967611,11.902834 C15.7823664,11.9535074 15.2219773,12.2737298 14.8663968,12.7773279 C14.6667397,13.3626864 14.5882252,13.9825376 14.6356275,14.5991903 L14.6356275,16.8947368 C14.6356275,17.1255061 14.659919,17.4777328 14.708502,17.951417 C14.7541443,18.312102 14.7804976,18.6749666 14.7874494,19.0384615 C12.965587,19.5688259 11.8825911,19.8785425 11.5384615,19.9676113 C10.4339787,20.2459457 9.30084172,20.3947209 8.16194332,20.4109312 C5.4291498,20.4109312 3.34615385,19.5060729 1.93117409,17.6842105 C0.643724696,16.0404858 0,13.8016194 0,10.9676113 C0,8.01214575 0.809716599,5.64574899 2.4291498,3.86842105 C4.048583,2.09109312 6.30364372,1.20647773 9.19433198,1.2145749 C9.867897,1.22162411 10.539139,1.29485051 11.1983806,1.43319838 C12.2932323,1.68287317 13.4027129,1.86339195 14.5202429,1.97368421 L14.6538462,7.03238866 Z" id="Path"></path>
                <path d="M22.6578947,6.97773279 C24.3197111,6.91684695 25.9145901,7.63566569 26.9696356,8.92105263 C28.0171237,10.2259979 28.5603072,11.8641703 28.5,13.5364372 C28.5799161,15.2396443 28.0669974,16.9178971 27.048583,18.2854251 C25.9594992,19.6023957 24.3095511,20.3236845 22.6032389,20.2287449 C20.966179,20.3147011 19.3805732,19.6428342 18.3036437,18.4068826 C17.2408688,17.0836673 16.6929502,15.4204971 16.7611336,13.7246964 C16.6773665,12.0106833 17.1926632,10.3209397 18.2186235,8.94534413 C19.3020783,7.62188162 20.9496758,6.89161954 22.6578947,6.97773279 Z M22.7732794,19.3117409 C23.7692308,19.3117409 24.3825911,18.388664 24.6315789,16.5364372 C24.7277784,15.6836724 24.7703722,14.8257112 24.7591093,13.9676113 L24.7591093,13.0566802 C24.784364,12.0106885 24.6885862,10.9652846 24.4736842,9.94129555 C24.1396761,8.58097166 23.51417,7.89473684 22.5910931,7.89473684 C21.6680162,7.89473684 21.0668016,8.54453441 20.7327935,9.83198381 C20.5201308,10.8296222 20.4243443,11.8486281 20.4473684,12.8684211 L20.4473684,13.8582996 C20.4110632,15.0300094 20.5253581,16.2015316 20.7874494,17.3441296 C21.1518219,18.6619433 21.8137652,19.3117409 22.7732794,19.3117409 Z" id="Shape"></path>
                <path d="M34.742915,6.97773279 C36.4049169,6.91589859 38.000198,7.63489852 39.0546559,8.92105263 C40.1043215,10.2251497 40.6496883,11.8634059 40.5910931,13.5364372 C40.6718087,15.2406955 40.156464,16.9198604 39.1336032,18.2854251 C38.0470234,19.6022189 36.3989102,20.3236911 34.694332,20.2287449 C33.0567861,20.3174701 31.4700149,19.6451095 30.3947368,18.4068826 C29.3278141,17.0855943 28.7774586,15.4215782 28.8461538,13.7246964 C28.7628965,12.0107466 29.2781417,10.3211715 30.3036437,8.94534413 C31.3858818,7.62028525 33.0343305,6.88964588 34.742915,6.97773279 Z M34.8643725,19.3117409 C35.8562753,19.3117409 36.4736842,18.3866397 36.7165992,16.5364372 C36.8153252,15.6838416 36.859949,14.8258486 36.8502024,13.9676113 L36.8502024,13.0566802 C36.8769885,12.0103312 36.7791342,10.9645132 36.5587045,9.94129555 C36.2307692,8.58097166 35.5991903,7.89473684 34.6821862,7.89473684 C33.7651822,7.89473684 33.1518219,8.54453441 32.8238866,9.83198381 C32.6082609,10.8291664 32.5124413,11.8485237 32.5384615,12.8684211 L32.5384615,13.8582996 C32.499073,15.0301096 32.6134067,16.2020292 32.8785425,17.3441296 C33.242915,18.6619433 33.9048583,19.3117409 34.8643725,19.3117409 L34.8643725,19.3117409 Z" id="Shape"></path>
                <path d="M48.4676113,3.24291498 C48.4967251,2.82492977 48.4172273,2.40652049 48.2368421,2.02834008 C48.0789474,1.79757085 47.7267206,1.67611336 47.1680162,1.67611336 L47.1680162,0.710526316 L47.3016194,0.710526316 C48.4811034,0.722463021 49.6493127,0.480121735 50.7267206,0 L51.8441296,0 L51.8441296,17.708502 C51.8027755,18.087854 51.9093664,18.4685358 52.1417004,18.7712551 C52.4581622,19.0197455 52.84492,19.1621233 53.2469636,19.1781377 L53.2469636,20.1497976 C52.3763535,20.0454215 51.5003259,19.9926976 50.6234818,19.9919028 C50.3441296,19.9919028 50.0161943,19.9919028 49.6639676,20.0465587 L48.6740891,20.1497976 L48.6740891,18.0242915 C48.2679195,18.6479412 47.7439588,19.1863417 47.1315789,19.6093117 C46.569022,20.021166 45.891504,20.2462974 45.194332,20.2530364 C43.8097166,20.2530364 42.7651822,19.5060729 42.0242915,18 C41.417286,16.7029922 41.1160316,15.2839802 41.1437247,13.8522267 C41.1030984,12.2391734 41.4974641,10.6449291 42.2854251,9.23684211 C43.2206478,7.61740891 44.5101215,6.80769231 46.1538462,6.80769231 C46.5377353,6.81277076 46.9186153,6.87625076 47.2834008,6.99595142 C47.7041985,7.12004174 48.1111803,7.28690429 48.4979757,7.49392713 L48.4676113,3.24291498 Z M48.4676113,8.39271255 L47.7024291,8.10728745 C47.5073274,8.03865364 47.3019634,8.00374176 47.0951417,8.00404858 C46.2145749,8.00404858 45.5708502,8.65991903 45.1761134,9.97165992 C44.9024412,10.9600964 44.7715611,11.982597 44.7874494,13.0080972 C44.7615966,13.9891673 44.8657402,14.9693426 45.097166,15.9230769 C45.4433198,17.1376518 46.0506073,17.7874494 46.9190283,17.7874494 C47.2369723,17.7910385 47.5491484,17.7024479 47.8178138,17.5323887 C48.0968245,17.35755 48.3316749,17.1206212 48.5040486,16.840081 L48.4676113,8.39271255 Z" id="Shape"></path>
                <path d="M57.8441296,1.46963563 L59.8906883,1.5242915 L61.9433198,1.5242915 C62.3744939,1.5242915 63.0182186,1.5242915 63.8623482,1.45748988 C64.7064777,1.39068826 65.3502024,1.39068826 65.7813765,1.39068826 C67.23363,1.30184666 68.6656624,1.76617232 69.7894737,2.6902834 C70.7489879,3.55263158 71.2287449,4.8340081 71.2287449,6.53441296 C71.2287449,8.48987854 70.7672065,9.99595142 69.8562753,11.0465587 C68.9453441,12.097166 67.4089069,12.7530364 65.4959514,12.7530364 C65.1376518,12.7530364 64.7732794,12.7530364 64.4089069,12.7530364 C64.0445344,12.7530364 63.6862348,12.6983806 63.3218623,12.6497976 L63.3218623,17.2044534 C63.271117,17.7084657 63.3955004,18.2145776 63.6740891,18.6376518 C64.06438,18.9942354 64.5456821,19.2359373 65.0647773,19.3360324 L65.0647773,20.2287449 C63.8823809,20.1079507 62.6946234,20.047144 61.5060729,20.0465587 C60.9473684,20.0465587 60.2368421,20.0465587 59.3623482,20.1133603 L57.8441296,20.1801619 L57.8441296,19.257085 C58.39621,19.2571184 58.9212079,19.0178788 59.2834008,18.6012146 C59.5592123,18.0878837 59.681486,17.5060294 59.6356275,16.9251012 L59.6356275,4.53643725 C59.6710404,3.98516087 59.5260899,3.43733319 59.2226721,2.9757085 C58.8776738,2.58259942 58.3647716,2.37924614 57.8441296,2.4291498 L57.8441296,1.46963563 Z M63.3097166,11.465587 C63.7059825,11.57083 64.1142884,11.6239098 64.5242915,11.6234818 C65.6244,11.6753131 66.6493995,11.0660477 67.1295547,10.0748988 C67.60224,9.08513285 67.8253375,7.99466562 67.7793522,6.89878543 C67.8194534,5.84266322 67.578451,4.79482687 67.0809717,3.86234818 C66.5577822,2.93206906 65.5538987,2.37722948 64.4878543,2.4291498 C64.1823931,2.41212518 63.8802829,2.49997285 63.6315789,2.67813765 C63.4085699,2.88214432 63.2939514,3.17880407 63.3218623,3.47975709 L63.3097166,11.465587 Z" id="Shape"></path>
                <path d="M77.2530364,9.71659919 C77.2800798,9.24640163 77.1497382,8.78059076 76.8825911,8.39271255 C76.5940654,8.04633905 76.153264,7.8645653 75.7044534,7.90688259 C75.3368247,7.89593377 74.9766091,8.01171734 74.6842105,8.23481781 C74.4023668,8.45844666 74.2462215,8.80468185 74.2651822,9.16396761 C74.268752,9.35397025 74.2911284,9.54315243 74.3319838,9.72874494 C74.3593731,9.86320923 74.3796443,9.99902578 74.3927126,10.1356275 C74.4165416,10.5357464 74.2526543,10.9241368 73.9493927,11.1862348 C73.6347126,11.437188 73.2402354,11.5665248 72.8380567,11.5506073 C72.4132514,11.5924577 71.9951496,11.4220358 71.7206478,11.0951417 C71.4729389,10.7087056 71.3538939,10.2537835 71.3805668,9.79554656 C71.3623906,8.78524591 72.0052927,7.88124174 72.965587,7.56680162 C73.8911116,7.20415379 74.8810435,7.03468737 75.8744939,7.06882591 C77.0899489,7.00100818 78.2989111,7.28795208 79.354251,7.89473684 C80.2975709,8.51012146 80.7692308,9.56882591 80.7692308,11.0708502 L80.7692308,17.5506073 C80.7587523,17.7570876 80.7897255,17.9635759 80.8603239,18.1578947 C80.9139146,18.2728822 81.0311141,18.344637 81.1578947,18.340081 C81.2773323,18.3303773 81.3933,18.2951728 81.4979757,18.2368421 C81.617927,18.177128 81.7318181,18.105946 81.8380567,18.0242915 L82.3846154,18.5769231 C81.9674743,19.0184442 81.5145116,19.4246887 81.0303644,19.791498 C80.5469933,20.1471932 79.9663238,20.346401 79.3663968,20.3623482 C78.8640113,20.3900518 78.3736362,20.2022956 78.0182186,19.8461538 C77.6759937,19.4642348 77.4634152,18.9838073 77.4109312,18.4736842 C76.9941138,19.0335253 76.4565091,19.4922537 75.8380567,19.8157895 C75.2414175,20.1620306 74.5662375,20.3501612 73.8765182,20.3623482 C73.0071807,20.3958592 72.1688128,20.0368773 71.5931174,19.3846154 C71.0128411,18.7111186 70.7071708,17.8439689 70.7368421,16.9554656 C70.7152297,15.4500755 71.5415733,14.0603159 72.8744939,13.3603239 C74.2179435,12.6299355 75.7305342,12.2675003 77.2591093,12.3097166 L77.2530364,9.71659919 Z M77.2530364,13.1295547 C76.4656353,13.2645285 75.6914637,13.4677231 74.9392713,13.7368421 C74.2651822,14.0890688 73.9251012,14.7753036 73.9251012,15.7955466 C73.9222818,16.3923271 74.0886261,16.9776909 74.4048583,17.4838057 C74.6854379,17.9702436 75.2098968,18.2639405 75.7712551,18.2489879 C76.3877289,18.2814753 76.9665963,17.9517106 77.2530364,17.4048583 L77.2530364,13.1295547 Z" id="Shape"></path>
                <path d="M82.111336,19.257085 C82.4998433,19.2974609 82.8917911,19.2258146 83.2408907,19.0506073 C83.4230769,18.9048583 83.51417,18.5465587 83.51417,17.9696356 L83.51417,10.1842105 C83.5347105,9.83841491 83.4977723,9.49160645 83.4048583,9.15789474 C83.2709688,8.83498503 82.9379999,8.64116731 82.5910931,8.68421053 L82.1234818,8.68421053 L82.1234818,7.84615385 C82.7658588,7.85880332 83.408083,7.81409151 84.0425101,7.71255061 C84.6675862,7.58174252 85.2779387,7.38846423 85.8643725,7.13562753 L86.9089069,7.13562753 L86.9089069,17.4595142 C86.8790077,17.9083595 86.9304409,18.3589145 87.0607287,18.7894737 C87.2942524,19.191129 87.7488859,19.4100267 88.208502,19.3421053 L88.208502,20.2044534 L86.6659919,20.0404858 C86.1376518,19.9979757 85.6336032,19.9736842 85.1477733,19.9736842 C84.6619433,19.9736842 84.194332,19.9736842 83.9331984,19.9736842 L82.111336,20.1558704 L82.111336,19.257085 Z M83.6659919,3.51619433 C83.6674168,3.07977413 83.8396219,2.66125034 84.145749,2.35020243 C84.4217012,2.02418479 84.8240029,1.83187574 85.2510121,1.82186235 C85.7114053,1.79673037 86.158272,1.98218007 86.465587,2.32591093 C86.7712067,2.69432192 86.9234156,3.1661695 86.8906883,3.6437247 C86.8820701,4.0825491 86.7354578,4.50751217 86.4716599,4.8582996 C86.257106,5.2299785 85.8623325,5.46084022 85.4331984,5.46558704 L85.0931174,5.46558704 C84.6639833,5.46084022 84.2692098,5.2299785 84.0546559,4.8582996 C83.7964571,4.45864976 83.6613107,3.99197233 83.6659919,3.51619433 L83.6659919,3.51619433 Z" id="Shape"></path>
                <path d="M88.6639676,19.2024291 C88.9793853,19.2247909 89.2962449,19.1898129 89.5991903,19.0991903 C89.8845473,18.9339449 90.0407988,18.6118263 89.9939271,18.2854251 L89.9939271,9.71659919 C89.9939271,9.24291498 89.8967611,8.95748988 89.708502,8.84817814 C89.3761226,8.7195584 89.0195128,8.66565227 88.6639676,8.6902834 L88.6639676,7.79149798 C89.2388664,7.79149798 89.6437247,7.77935223 89.8785425,7.75506073 C90.1214575,7.75506073 90.48583,7.66396761 90.9230769,7.56680162 L92.2712551,7.13562753 L93.0789474,7.13562753 L93.3097166,10.0748988 C93.5340276,9.38790007 93.8683317,8.74185233 94.2995951,8.16194332 C94.6907148,7.55699137 95.3475323,7.17554069 96.0668016,7.13562753 C96.5531243,7.14790925 97.0043749,7.39158455 97.2813765,7.79149798 C97.6084875,8.18176676 97.7908247,8.67300474 97.7975709,9.18218623 C97.8076908,9.70640797 97.6732179,10.2232883 97.4089069,10.6761134 C97.1743152,11.0994201 96.7203299,11.3534637 96.2368421,11.3319838 C95.936419,11.3561657 95.6413444,11.2421596 95.4352227,11.0222672 C95.2375605,10.7592308 95.1044321,10.4534515 95.0465587,10.1295547 C94.960538,10.0222383 94.8406364,9.9472998 94.7064777,9.91700405 C94.5,9.91700405 94.2267206,10.257085 93.8866397,10.9251012 C93.6311401,11.3586835 93.4601074,11.8367507 93.3825911,12.3340081 L93.3825911,18 C93.3825911,18.5587045 93.5283401,18.9109312 93.8259109,19.0506073 C93.9109312,19.0809717 94.3178138,19.159919 95.0404858,19.2813765 L95.0404858,20.1740891 C94.5632873,20.1649166 94.0869105,20.1304553 93.6133603,20.0708502 C93.0060729,20.0040486 92.4838057,19.9676113 92.1437247,19.9676113 C91.6578947,19.9676113 91.1295547,19.9676113 90.5526316,20.0101215 C89.9757085,20.0526316 89.3380567,20.0951417 88.645749,20.1740891 L88.6639676,19.2024291 Z" id="Path"></path>
                <path d="M101.902834,19.2024291 C102.422524,19.1755912 102.917458,18.9720471 103.305668,18.6255061 C103.617525,18.2231521 103.765109,17.7174609 103.718623,17.2105263 L103.718623,4.25101215 C103.768885,3.77699801 103.614198,3.3040966 103.293522,2.951417 C102.886928,2.64548287 102.407606,2.45082373 101.902834,2.38663968 L101.902834,1.49392713 L104.763158,1.49392713 L110.526316,1.49392713 C113.161943,1.49392713 115.165992,2.36234818 116.55668,4.09311741 C117.836032,5.71255061 118.475709,7.88461538 118.475709,10.6093117 C118.475709,13.5364372 117.680162,15.8582996 116.089069,17.5748988 C114.497976,19.291498 112.255061,20.1497976 109.360324,20.1497976 C108.680162,20.1497976 108.145749,20.1497976 107.696356,20.1133603 C105.995951,20.034413 105.072874,19.9919028 104.91498,19.9919028 C104.307692,19.9919028 103.779352,19.9919028 103.317814,19.9919028 C102.844079,20.0107261 102.37172,20.0553265 101.902834,20.1255061 L101.902834,19.2024291 Z M108.84413,18.9959514 C110.732822,19.0699437 112.492985,18.0418 113.356275,16.3603239 C114.201443,14.6663896 114.604624,12.7862714 114.52834,10.8947368 C114.594078,8.97620235 114.202752,7.06952724 113.38664,5.33198381 C112.60794,3.55333532 110.833938,2.41941195 108.892713,2.45951417 C108.445611,2.40909823 107.995668,2.52591042 107.629555,2.78744939 C107.371618,3.15277263 107.257058,3.60020491 107.307692,4.04453441 L107.307692,17.2834008 C107.268483,17.7444078 107.376953,18.2059353 107.617409,18.6012146 C107.947854,18.9076718 108.396975,19.0521908 108.84413,18.9959514 L108.84413,18.9959514 Z" id="Shape"></path>
                <path d="M125.210526,9.71659919 C125.23757,9.24640163 125.107228,8.78059076 124.840081,8.39271255 C124.551555,8.04633905 124.110754,7.8645653 123.661943,7.90688259 C123.294315,7.89593377 122.934099,8.01171734 122.6417,8.23481781 C122.359857,8.45844666 122.203711,8.80468185 122.222672,9.16396761 C122.226242,9.35397025 122.248618,9.54315243 122.289474,9.72874494 C122.316863,9.86320923 122.337134,9.99902578 122.350202,10.1356275 C122.374031,10.5357464 122.210144,10.9241368 121.906883,11.1862348 C121.592202,11.437188 121.197725,11.5665248 120.795547,11.5506073 C120.370741,11.5924577 119.95264,11.4220358 119.678138,11.0951417 C119.427668,10.7099206 119.308382,10.2540765 119.338057,9.79554656 C119.31988,8.78524591 119.962783,7.88124174 120.923077,7.56680162 C121.848602,7.20415379 122.838533,7.03468737 123.831984,7.06882591 C125.047439,7.00100818 126.256401,7.28795208 127.311741,7.89473684 C128.267206,8.51012146 128.744939,9.56882591 128.744939,11.0708502 L128.744939,17.5506073 C128.734461,17.7570876 128.765434,17.9635759 128.836032,18.1578947 C128.888325,18.2740331 129.006388,18.3463161 129.133603,18.340081 C129.253041,18.3303773 129.369008,18.2951728 129.473684,18.2368421 C129.593635,18.177128 129.707527,18.105946 129.813765,18.0242915 L130.354251,18.5769231 C129.940328,19.0194982 129.48929,19.425839 129.006073,19.791498 C128.522158,20.1461544 127.941824,20.3452474 127.342105,20.3623482 C126.83972,20.3900518 126.349345,20.2022956 125.993927,19.8461538 C125.651702,19.4642348 125.439124,18.9838073 125.38664,18.4736842 C124.969822,19.0335253 124.432218,19.4922537 123.813765,19.8157895 C123.217126,20.1620306 122.541946,20.3501612 121.852227,20.3623482 C120.982889,20.3958592 120.144521,20.0368773 119.568826,19.3846154 C118.98855,18.7111186 118.682879,17.8439689 118.712551,16.9554656 C118.690938,15.4500755 119.517282,14.0603159 120.850202,13.3603239 C122.193652,12.6299355 123.706243,12.2675003 125.234818,12.3097166 L125.210526,9.71659919 Z M125.210526,13.1295547 C124.423125,13.2645285 123.648954,13.4677231 122.896761,13.7368421 C122.222672,14.0890688 121.882591,14.7753036 121.882591,15.7955466 C121.879772,16.3923271 122.046116,16.9776909 122.362348,17.4838057 C122.642928,17.9702436 123.167387,18.2639405 123.728745,18.2489879 C124.345219,18.2814753 124.924086,17.9517106 125.210526,17.4048583 L125.210526,13.1295547 Z" id="Shape"></path>
                <path d="M129.242915,7.1902834 C129.692308,7.1902834 130.281377,7.1902834 131.010121,7.25708502 C131.738866,7.32388664 132.163968,7.31781377 132.285425,7.31781377 C132.661943,7.31781377 133.293522,7.31781377 134.168016,7.25708502 C135.04251,7.19635628 135.504049,7.1902834 135.558704,7.1902834 L135.558704,8.10728745 L135.346154,8.10728745 C135.019511,8.09707257 134.695028,8.16363326 134.398785,8.30161943 C134.140382,8.44886741 133.992852,8.7344102 134.022267,9.03036437 C134.026484,9.44085015 134.083636,9.84907717 134.192308,10.2449393 C134.301619,10.6821862 134.423077,11.1012146 134.544534,11.5080972 L136.032389,18.4190283 C136.32996,17.3137652 136.548583,16.4939271 136.682186,15.9534413 C137.342105,13.5242915 137.718623,12.1072874 137.811741,11.7024291 C137.908907,11.3016194 138.012146,10.8340081 138.12753,10.2995951 C138.228177,9.85479271 138.285128,9.40122142 138.297571,8.94534413 C138.340535,8.71163563 138.243244,8.47433897 138.048583,8.33805668 C137.79773,8.21477657 137.529413,8.13079951 137.253036,8.08906883 L137.253036,7.11740891 C137.548583,7.15384615 137.882591,7.18421053 138.255061,7.20850202 C138.625506,7.20850202 138.892713,7.25101215 139.050607,7.25101215 L140.058704,7.25101215 C140.404858,7.25101215 140.744939,7.25101215 141.072874,7.1902834 L141.072874,8.10728745 L140.890688,8.10728745 C140.410596,8.25134749 140.035876,8.62835218 139.894737,9.10931174 L139.506073,10.5789474 L137.319838,18.5404858 C136.991903,19.6781377 136.672065,20.8218623 136.360324,21.9716599 C135.8583,23.4534413 135.287449,24.4493927 134.647773,24.9595142 C134.06297,25.4431808 133.329713,25.7111838 132.57085,25.7186235 C131.830527,25.7354048 131.100373,25.5439235 130.463563,25.1659919 C129.798372,24.832829 129.376113,24.1548696 129.370445,23.4109312 C129.357491,22.9444115 129.491312,22.4855953 129.753036,22.0991903 C129.987739,21.7371269 130.396909,21.5267622 130.827935,21.5465587 C131.255659,21.516095 131.674552,21.6787502 131.969636,21.9898785 C132.245321,22.3325333 132.38384,22.7654066 132.3583,23.2044534 C132.361648,23.3966235 132.330804,23.5878584 132.267206,23.7692308 C132.169759,24.0104924 132.054038,24.2439641 131.921053,24.4676113 C132.226053,24.5476503 132.54116,24.5824348 132.856275,24.5708502 C133.617409,24.5708502 134.265182,23.9838057 134.799595,22.8097166 C135.164132,21.9036534 135.468438,20.9745064 135.710526,20.0283401 L133.1417,20.0283401 C132.42915,17.1012146 131.718623,14.1619433 131.010121,11.2105263 C130.748988,9.99595142 130.603239,9.3582996 130.566802,9.27327935 C130.293522,8.50202429 129.850202,8.1194332 129.242915,8.1194332 L129.242915,7.1902834 Z" id="Path"></path>
                <path d="M140.921053,15.7408907 L142.068826,15.7408907 C142.164762,16.5673041 142.392336,17.3730391 142.742915,18.1275304 C143.170362,18.8559959 143.978272,19.2741246 144.819838,19.2024291 C145.30346,19.2175543 145.778176,19.0700074 146.168016,18.7834008 C146.547702,18.5139609 146.764905,18.070409 146.744939,17.6052632 C146.744939,16.8157895 146.259109,16.1781377 145.287449,15.6923077 L142.427126,14.2469636 C141.421018,13.4886446 140.856765,12.280507 140.921053,11.0222672 C140.877311,9.80745741 141.468482,8.65732074 142.481781,7.98582996 C143.49289,7.33264826 144.679528,7.00420393 145.882591,7.04453441 C146.351824,7.03970719 146.820757,7.07015734 147.285425,7.13562753 C147.690283,7.19635628 148.218623,7.30566802 148.870445,7.46356275 L148.870445,10.6275304 L147.704453,10.6275304 C147.727191,9.95974177 147.494858,9.30834163 147.054656,8.80566802 C146.595651,8.3256369 145.950813,8.06858781 145.287449,8.10121457 C144.848671,8.08517429 144.418386,8.22501699 144.072874,8.49595142 C143.744685,8.74119003 143.556592,9.13097327 143.568826,9.54048583 C143.568826,10.1477733 144.097166,10.6821862 145.153846,11.1680162 C146.171549,11.5951929 147.15256,12.1049938 148.087045,12.6923077 C149.14402,13.5326778 149.733553,14.8291976 149.672065,16.1781377 C149.731677,17.3533352 149.248046,18.4907639 148.360324,19.2631579 C147.429567,20.0255179 146.252989,20.422748 145.050607,20.3805668 C143.618762,20.3937318 142.20398,20.069164 140.921053,19.4331984 L140.921053,15.7408907 Z" id="Path"></path>
            </g>
        </g>
    </g>
</svg>