<?xml version="1.0" encoding="UTF-8"?>
<svg width="60px" height="66px" viewBox="0 0 60 66" version="1.1" xmlns="http://www.w3.org/2000/svg" xmlns:xlink="http://www.w3.org/1999/xlink">
    <!-- Generator: Sketch 53.2 (72643) - https://sketchapp.com -->
    <title>Group 27 Copy</title>
    <desc>Created with Sketch.</desc>
    <defs>
        <polygon id="path-1" points="0.211448276 0.0672375 12.3028966 0.0672375 12.3028966 20.235435 0.211448276 20.235435"></polygon>
        <polygon id="path-3" points="0.291434483 0.35437875 9.42455172 0.35437875 9.42455172 13.3382287 0.291434483 13.3382287"></polygon>
    </defs>
    <g id="Symbols" stroke="none" stroke-width="1" fill="none" fill-rule="evenodd">
        <g id="footer" transform="translate(-20.000000, -20.000000)">
            <g id="Group-27-Copy" transform="translate(20.000000, 20.000000)">
                <path d="M14.6335448,7.41415125 L13.3102345,7.41415125 C13.3102345,6.15231375 12.9903724,5.11075125 12.3502345,4.28740125 C11.6409931,3.35886375 10.6723034,2.89480125 9.44416552,2.89480125 C7.54154483,2.89480125 6.0974069,3.74785125 5.11133793,5.45477625 C4.31561379,6.84820125 3.91795862,8.58070125 3.91795862,10.6535137 C3.91795862,12.6566137 4.30692414,14.4765637 5.08526897,16.1133637 C6.07133793,18.1857637 7.44678621,19.2219637 9.21078621,19.2219637 C9.79878621,19.2219637 10.4128552,19.0825387 11.0529931,18.8041012 L11.0529931,14.1799762 C11.0529931,12.9614512 10.473269,12.3517762 9.31464828,12.3517762 L9.34071724,11.3065012 C9.91133793,11.3679637 10.5688552,11.4133387 11.3124414,11.4438637 C12.0560276,11.4743887 12.869131,11.4892387 13.7517517,11.4892387 C14.0629241,11.4892387 14.5685793,11.4591262 15.2695448,11.3976637 C15.9696828,11.3370262 16.3462345,11.3065012 16.3979586,11.3065012 L16.3979586,12.2787637 C15.6022345,12.4371637 15.0916138,12.7263262 14.8669241,13.1466637 C14.7113379,13.4449012 14.6335448,14.0500387 14.6335448,14.9612512 L14.6335448,17.2489762 C14.6335448,17.4770887 14.6596138,17.8273012 14.7113379,18.3008512 C14.7630621,18.7739887 14.789131,19.1328637 14.789131,19.3783012 C12.9556138,19.9009387 11.8660966,20.2061887 11.5201655,20.2932262 C10.2746483,20.5889887 9.14995862,20.7370762 8.14692414,20.7370762 C5.41382069,20.7370762 3.33823448,19.8320512 1.91975172,18.0203512 C0.639889655,16.3835512 0.000165517241,14.1539887 0.000165517241,11.3320762 C0.000165517241,8.38971375 0.808303448,6.03392625 2.42623448,4.26553875 C4.04333793,2.49880125 6.29602759,1.61398875 9.18513103,1.61398875 C9.79009655,1.61398875 10.4563034,1.68700125 11.1829241,1.83096375 C12.9990621,2.19148875 14.1059586,2.37175125 14.5040276,2.37175125 L14.6335448,7.41415125 Z" id="Fill-1" fill="#000000"></path>
                <path d="M22.839931,19.6400737 C23.8313793,19.6400737 24.4495862,18.7193737 24.6928966,16.8771487 C24.7797931,16.2340612 24.8236552,15.3826612 24.8236552,14.3229487 L24.8236552,13.4104987 C24.8236552,12.1074112 24.7276552,11.0732737 24.5368966,10.3093238 C24.2058621,8.95426125 23.5789655,8.27569875 22.6570345,8.27569875 C21.7524828,8.27569875 21.1342759,8.91878625 20.8036552,10.2045487 C20.6124828,10.9519987 20.5164828,11.9683987 20.5164828,13.2545737 L20.5164828,14.2441612 C20.5164828,15.7559737 20.6294483,16.9122112 20.8557931,17.7112237 C21.2211724,18.9969862 21.8824138,19.6400737 22.839931,19.6400737 M22.722,7.36159875 C24.5207586,7.36159875 25.9562069,8.00674875 27.0291724,9.29457375 C28.0491724,10.5143362 28.5597931,12.0467737 28.5597931,13.8922987 C28.5597931,15.8434237 28.0752414,17.4187612 27.1069655,18.6211987 C26.0691724,19.9098487 24.5898621,20.5541737 22.6702759,20.5541737 C20.8363448,20.5541737 19.4050345,19.9449112 18.375931,18.7251487 C17.3468276,17.5066237 16.832069,15.9564487 16.832069,14.0754487 C16.832069,12.1074112 17.3162069,10.5225862 18.2853103,9.32097375 C19.340069,8.01458625 20.8189655,7.36159875 22.722,7.36159875" id="Fill-3" fill="#000000"></path>
                <path d="M34.9138759,19.6400737 C35.9053241,19.6400737 36.523531,18.7193737 36.7668414,16.8771487 C36.8537379,16.2340612 36.8971862,15.3826612 36.8971862,14.3229487 L36.8971862,13.4104987 C36.8971862,12.1074112 36.8016,11.0732737 36.6108414,10.3093238 C36.2798069,8.95426125 35.6529103,8.27569875 34.7309793,8.27569875 C33.8260138,8.27569875 33.2082207,8.91878625 32.8776,10.2045487 C32.6864276,10.9519987 32.5904276,11.9683987 32.5904276,13.2545737 L32.5904276,14.2441612 C32.5904276,15.7559737 32.7033931,16.9122112 32.9297379,17.7112237 C33.2947034,18.9969862 33.9563586,19.6400737 34.9138759,19.6400737 M34.7959448,7.36159875 C36.5947034,7.36159875 38.0301517,8.00674875 39.1031172,9.29457375 C40.1231172,10.5143362 40.6337379,12.0467737 40.6337379,13.8922987 C40.6337379,15.8434237 40.1491862,17.4187612 39.1809103,18.6211987 C38.1431172,19.9098487 36.6638069,20.5541737 34.7438069,20.5541737 C32.9102897,20.5541737 31.4785655,19.9449112 30.4498759,18.7251487 C29.4207724,17.5066237 28.9060138,15.9564487 28.9060138,14.0754487 C28.9060138,12.1074112 29.3901517,10.5225862 30.3592552,9.32097375 C31.4140138,8.01458625 32.8929103,7.36159875 34.7959448,7.36159875" id="Fill-5" fill="#000000"></path>
                <g id="Group-9" transform="translate(40.965517, 0.345262)">
                    <mask id="mask-2" fill="white">
                        <use xlink:href="#path-1"></use>
                    </mask>
                    <g id="Clip-8"></g>
                    <path d="M7.55462069,8.4267975 C7.24344828,8.30511 6.98772414,8.2098225 6.78910345,8.14011 C6.58965517,8.0703975 6.3777931,8.035335 6.15351724,8.035335 C5.27089655,8.035335 4.63117241,8.6883225 4.23351724,9.99471 C3.97406897,10.8654975 3.84413793,11.8843725 3.84413793,13.0509225 C3.84413793,14.252535 3.948,15.2190225 4.15572414,15.9507975 C4.50124138,17.1874725 5.10662069,17.8053975 5.97186207,17.8053975 C6.3,17.8053975 6.59875862,17.72331 6.86689655,17.557485 C7.13503448,17.39166 7.36386207,17.161485 7.55462069,16.8648975 L7.55462069,8.4267975 Z M7.55462069,3.2985975 C7.55462069,2.70996 7.47682759,2.2986975 7.32124138,2.0643975 C7.16524138,1.8309225 6.81062069,1.71336 6.25737931,1.71336 L6.25737931,0.7724475 L6.38689655,0.79926 C7.58027586,0.79926 8.72193103,0.55506 9.81186207,0.0670725 L10.9274483,0.0670725 L10.9013793,17.701035 C10.9013793,18.2063475 11.0011034,18.559035 11.2001379,18.7590975 C11.3987586,18.9595725 11.7666207,19.09446 12.3028966,19.1641725 L12.3028966,20.13066 C11.4376552,20.025885 10.5641379,19.9734975 9.68193103,19.9734975 C9.40510345,19.9734975 9.08524138,19.991235 8.72193103,20.025885 C8.35862069,20.0609475 8.03006897,20.095185 7.73627586,20.13066 L7.73627586,18.0141225 C7.32124138,18.6419475 6.80606897,19.1682975 6.19241379,19.5948225 C5.57834483,20.02176 4.93406897,20.235435 4.25958621,20.235435 C2.87503448,20.235435 1.82027586,19.4867475 1.09406897,17.9885475 C0.505655172,16.786935 0.211448276,15.410835 0.211448276,13.8610725 C0.211448276,12.10176 0.592137931,10.56891 1.35351724,9.2633475 C2.28744828,7.66161 3.576,6.8592975 5.21917241,6.8592975 C5.56510345,6.8592975 5.94165517,6.9211725 6.348,7.0424475 C6.75434483,7.164135 7.15655172,7.32996 7.55462069,7.5390975 L7.55462069,3.2985975 Z" id="Fill-7" fill="#000000" mask="url(#mask-2)"></path>
                </g>
                <path d="M25.4661103,33.8858437 C25.8616966,33.9902062 26.2572828,34.0421812 26.652869,34.0421812 C27.8392138,34.0421812 28.7073517,33.5290312 29.2581103,32.5014937 C29.6876276,31.7000062 29.9032138,30.6460687 29.9032138,29.3400937 C29.9032138,28.1038312 29.6706621,27.0932062 29.2068,26.3098687 C28.6386621,25.3693687 27.7792138,24.8991187 26.6268,24.8991187 C26.2659724,24.8991187 25.9821103,24.9820312 25.7756276,25.1470312 C25.5695586,25.3128562 25.4661103,25.5776812 25.4661103,25.9439812 L25.4661103,33.8858437 Z M19.9916276,23.9326312 L22.0374207,23.9846062 L24.0832138,23.9846062 C24.5143862,23.9846062 25.1532828,23.9631562 25.9994897,23.9194312 C26.8452828,23.8757062 27.4837655,23.8542562 27.9157655,23.8542562 C29.624731,23.8542562 30.9579724,24.2849062 31.916731,25.1470312 C32.8746621,26.0091562 33.3538345,27.2854312 33.3538345,28.9742062 C33.3538345,30.9249187 32.8970069,32.4222937 31.9833517,33.4675687 C31.0175586,34.5817312 29.5696966,35.1394312 27.6385241,35.1394312 C27.2764552,35.1394312 26.9143862,35.1311812 26.5523172,35.1134437 C26.1902483,35.0965312 25.8281793,35.0610562 25.4661103,35.0090812 L25.4661103,39.5436937 C25.4661103,40.2255562 25.5828,40.7019937 25.8165931,40.9725937 C26.0503862,41.2440187 26.5125931,41.4750187 27.2044552,41.6672437 L27.2044552,42.5582437 C26.0110759,42.4365562 24.8259724,42.3755062 23.6499724,42.3755062 C23.0959034,42.3755062 22.3829379,42.3981937 21.5094207,42.4410937 C20.6359034,42.4848187 20.1298345,42.5058562 19.9916276,42.5058562 L19.9916276,41.6445562 C20.7178345,41.5571062 21.1982483,41.3401312 21.4316276,40.9915687 C21.6650069,40.6430062 21.7821103,40.0861312 21.7821103,39.3192937 L21.7821103,26.9888437 C21.7821103,26.3098687 21.6451448,25.7913562 21.3724552,25.4349562 C21.0997655,25.0773187 20.6396276,24.8991187 19.9916276,24.8991187 L19.9916276,23.9326312 Z" id="Fill-10" fill="#000000"></path>
                <path d="M39.3780828,35.5575825 C38.0638759,35.8372575 37.2942207,36.0393825 37.0687034,36.1614825 C36.3942207,36.511695 36.0573931,37.19397 36.0573931,38.2091325 C36.0573931,38.82252 36.2167034,39.3822825 36.5378069,39.89007 C36.857669,40.39827 37.3111862,40.651545 37.9000138,40.651545 C38.5744966,40.651545 39.0669103,40.37187 39.3780828,39.8112825 L39.3780828,35.5575825 Z M39.3780828,32.16147 C39.3780828,31.60377 39.2560138,31.1644575 39.0122897,30.8418825 C38.7673241,30.5201325 38.3754621,30.358845 37.8338069,30.358845 C37.4328414,30.358845 37.0927034,30.467745 36.8129793,30.685545 C36.5340828,30.903345 36.3942207,31.21272 36.3942207,31.612845 C36.3942207,31.75227 36.4157379,31.939545 36.4591862,32.17467 C36.5026345,32.40897 36.5245655,32.54427 36.5245655,32.5793325 C36.5245655,33.0322575 36.3772552,33.38082 36.0830483,33.624195 C35.7884276,33.8679825 35.4168414,33.9900825 34.9678759,33.9900825 C34.4489793,33.9900825 34.0761517,33.8374575 33.8518759,33.53262 C33.6267724,33.2286075 33.5146345,32.7971325 33.5146345,32.2394325 C33.5146345,31.21272 34.0426345,30.4722825 35.0969793,30.0193575 C35.8583586,29.68812 36.8270483,29.52312 38.0038759,29.52312 C39.5419448,29.52312 40.7018069,29.7842325 41.4797379,30.30687 C42.413669,30.9334575 42.8804276,31.9960575 42.8804276,33.4934325 L42.8804276,39.94617 C42.8804276,40.242345 42.9110483,40.4514825 42.9722897,40.57317 C43.0327034,40.69527 43.1316,40.75632 43.2702207,40.75632 C43.3558759,40.75632 43.469669,40.7212575 43.6070483,40.651545 C43.745669,40.582245 43.8582207,40.5125325 43.9451172,40.44282 L44.4900828,40.991445 C43.9194621,41.5578075 43.469669,41.9521575 43.1398759,42.17532 C42.5862207,42.552345 42.0333931,42.74127 41.4797379,42.74127 C40.9091172,42.74127 40.4589103,42.5717325 40.1307724,42.232245 C39.8013931,41.8927575 39.593669,41.4348825 39.5080138,40.8606825 C39.1269103,41.390745 38.6047034,41.83707 37.9384966,42.1988325 C37.2727034,42.560595 36.6184966,42.74127 35.9791862,42.74127 C35.0282897,42.74127 34.2669103,42.4182825 33.6962897,41.7714825 C33.1252552,41.1255075 32.8397379,40.3219575 32.8397379,39.36042 C32.8397379,37.78797 33.5597379,36.5822325 35.0018069,35.7432075 C36.2179448,35.0444325 37.6765655,34.695045 39.3780828,34.695045 L39.3780828,32.16147 Z" id="Fill-12" fill="#000000"></path>
                <path d="M45.7866207,25.970175 C45.7866207,25.534575 45.945931,25.1472375 46.2662069,24.80775 C46.586069,24.4674375 46.953931,24.2979 47.3689655,24.2979 C47.8704828,24.2979 48.2685517,24.4641375 48.5623448,24.7941375 C48.8569655,25.1257875 49.0038621,25.5519 49.0038621,26.0745375 C49.0038621,26.4928125 48.8652414,26.897475 48.5884138,27.28935 C48.3115862,27.6808125 47.9656552,27.8771625 47.5506207,27.8771625 L47.2133793,27.8771625 C46.7809655,27.8771625 46.4350345,27.6771 46.1755862,27.27615 C45.9161379,26.8756125 45.7866207,26.440425 45.7866207,25.970175 L45.7866207,25.970175 Z M44.2295172,41.64435 C44.8005517,41.64435 45.1766897,41.5746375 45.3583448,41.4348 C45.54,41.295375 45.6306207,40.9369125 45.6306207,40.3610625 L45.6306207,32.60895 C45.6306207,32.103225 45.5962759,31.7629125 45.5267586,31.5876 C45.405931,31.2736875 45.1291034,31.116525 44.6966897,31.116525 L44.2295172,31.116525 L44.2295172,30.279975 C45.0293793,30.279975 45.6682759,30.237075 46.1470345,30.149625 C46.6253793,30.0634125 47.229931,29.8711875 47.9602759,29.5746 L49.0038621,29.5746 L49.0038621,39.8206875 C49.0038621,40.481925 49.056,40.92495 49.1594483,41.1505875 C49.332,41.51565 49.7126897,41.697975 50.3011034,41.697975 L50.3271724,42.55845 C49.8252414,42.51225 49.3104828,42.465225 48.7833103,42.4194375 C48.2553103,42.372825 47.7492414,42.349725 47.2655172,42.349725 C46.7114483,42.349725 46.3137931,42.3588 46.0721379,42.3757125 C45.8296552,42.3930375 45.2155862,42.453675 44.2295172,42.55845 L44.2295172,41.64435 Z" id="Fill-14" fill="#000000"></path>
                <g id="Group-18" transform="translate(50.482759, 29.220263)">
                    <mask id="mask-4" fill="white">
                        <use xlink:href="#path-3"></use>
                    </mask>
                    <g id="Clip-17"></g>
                    <path d="M0.291434483,12.3717412 C0.758193103,12.3717412 1.06936552,12.3366787 1.22536552,12.2669663 C1.48481379,12.1448663 1.61433103,11.8742662 1.61433103,11.4551663 L1.61433103,2.94364125 C1.61433103,2.47256625 1.51957241,2.18422875 1.32881379,2.07945375 C1.13888276,1.97467875 0.792537931,1.92229125 0.291434483,1.92229125 L0.291434483,1.00777875 C0.862055172,1.00777875 1.26881379,0.99581625 1.51046897,0.97024125 C1.75295172,0.94507875 2.09888276,0.88196625 2.54908966,0.78131625 L3.89764138,0.35437875 L4.70205517,0.35437875 L4.93543448,3.28106625 C5.21226207,2.49690375 5.54122759,1.86165375 5.92191724,1.37407875 C6.45736552,0.69427875 7.04577931,0.35437875 7.68591724,0.35437875 C8.15308966,0.35437875 8.55943448,0.57259125 8.90577931,1.00777875 C9.25129655,1.44379125 9.42467586,1.90496625 9.42467586,2.39295375 C9.42467586,2.95024125 9.29474483,3.44606625 9.03529655,3.88166625 C8.77584828,4.31726625 8.38688276,4.53506625 7.86757241,4.53506625 C7.50426207,4.53506625 7.23571034,4.43029125 7.06315862,4.22074125 C6.8901931,4.01201625 6.76026207,3.71666625 6.6741931,3.33262875 C6.58729655,3.22867875 6.47515862,3.15896625 6.33695172,3.12390375 C6.12922759,3.12390375 5.85653793,3.45967875 5.51929655,4.12957875 C5.18205517,4.80030375 5.01322759,5.26601625 5.01322759,5.52712875 L5.01322759,11.1701287 C5.01322759,11.7274163 5.16053793,12.0759788 5.45515862,12.2145788 C5.54122759,12.2500537 5.94757241,12.3288412 6.6741931,12.4497037 L6.6741931,13.3382287 C6.36384828,13.3382287 5.89005517,13.3035788 5.25281379,13.2334537 C4.61557241,13.1645663 4.12481379,13.1295038 3.78012414,13.1295038 C3.29764138,13.1295038 2.76798621,13.1443537 2.19033103,13.1740538 C1.61308966,13.2041663 0.9804,13.2582037 0.291434483,13.3382287 L0.291434483,12.3717412 Z" id="Fill-16" fill="#000000" mask="url(#mask-4)"></path>
                </g>
                <path d="M7.19962759,59.2445288 C9.23093793,59.2445288 10.7325931,58.3700288 11.7050069,56.6202038 C12.4854207,55.2197663 12.8764552,53.4093038 12.8764552,51.1863413 C12.8764552,48.9642038 12.4957655,47.1182663 11.7343862,45.6481163 C10.748731,43.7411288 9.25245517,42.7870163 7.24597241,42.7870163 C6.62321379,42.7870163 6.20362759,42.8959163 5.98762759,43.1149538 C5.7708,43.3339913 5.66362759,43.7497913 5.66362759,44.3615288 L5.66362759,57.5384288 C5.66362759,58.1514038 5.76748966,58.5890663 5.97604138,58.8514163 C6.18417931,59.1141788 6.59217931,59.2445288 7.19962759,59.2445288 L7.19962759,59.2445288 Z M0.266524138,59.4540788 C0.923627586,59.3666288 1.39038621,59.1752288 1.66721379,58.8786413 C1.94445517,58.5828788 2.08266207,58.1126288 2.08266207,57.4687163 L2.08266207,44.5372538 C2.08266207,43.9279913 1.94031724,43.4969288 1.6548,43.2444788 C1.36928276,42.9920288 0.906248276,42.8047538 0.266524138,42.6826538 L0.266524138,41.8201163 L3.12086897,41.7941288 L8.88086897,41.7941288 C11.5096966,41.7941288 13.5161793,42.6574913 14.8999034,44.3842163 C16.1801793,45.9884288 16.8203172,48.1507538 16.8203172,50.8720163 C16.8203172,53.7846788 16.0245931,56.0950913 14.432731,57.8044913 C12.8416966,59.5138913 10.6014207,60.3681788 7.71314483,60.3681788 C7.03866207,60.3681788 6.4845931,60.3578663 6.0530069,60.3364163 C4.35686897,60.2535038 3.43204138,60.2118413 3.27645517,60.2118413 C2.67066207,60.2118413 2.13852414,60.2205038 1.68086897,60.2374163 C1.22238621,60.2547413 0.750662069,60.2984663 0.266524138,60.3681788 L0.266524138,59.4540788 Z" id="Fill-19" fill="#000000"></path>
                <path d="M23.544869,53.419575 C22.2302483,53.69925 21.4605931,53.9009625 21.2354897,54.0230625 C20.5610069,54.3736875 20.2237655,55.0559625 20.2237655,56.071125 C20.2237655,56.6845125 20.3834897,57.244275 20.7041793,57.7520625 C21.0236276,58.25985 21.4779724,58.5135375 22.0663862,58.5135375 C22.740869,58.5135375 23.2336966,58.2338625 23.544869,57.673275 L23.544869,53.419575 Z M23.544869,50.0234625 C23.544869,49.4657625 23.4223862,49.02645 23.1786621,48.7034625 C22.9336966,48.382125 22.5414207,48.2208375 22.0005931,48.2208375 C21.5992138,48.2208375 21.2590759,48.3297375 20.9797655,48.547125 C20.7004552,48.7653375 20.5610069,49.0743 20.5610069,49.4748375 C20.5610069,49.6142625 20.5825241,49.8015375 20.6259724,50.0366625 C20.6690069,50.2709625 20.6909379,50.4062625 20.6909379,50.441325 C20.6909379,50.89425 20.5436276,51.2424 20.2498345,51.4861875 C19.9552138,51.729975 19.5836276,51.852075 19.1342483,51.852075 C18.6153517,51.852075 18.2429379,51.69945 18.0182483,51.3946125 C17.7931448,51.0901875 17.6810069,50.659125 17.6810069,50.101425 C17.6810069,49.0743 18.2085931,48.3338625 19.2637655,47.8809375 C20.024731,47.5501125 20.9934207,47.3847 22.1698345,47.3847 C23.708731,47.3847 24.8685931,47.6458125 25.6469379,48.1688625 C26.5804552,48.7950375 27.0476276,49.8576375 27.0476276,51.355425 L27.0476276,57.8081625 C27.0476276,58.1043375 27.0778345,58.313475 27.1386621,58.4351625 C27.1990759,58.5572625 27.2979724,58.6183125 27.4365931,58.6183125 C27.5230759,58.6183125 27.6356276,58.58325 27.7738345,58.5135375 C27.912869,58.4442375 28.0250069,58.374525 28.1119034,58.3048125 L28.6564552,58.853025 C28.0858345,59.4198 27.6356276,59.81415 27.3070759,60.0373125 C26.7530069,60.4143375 26.2001793,60.6032625 25.6469379,60.6032625 C25.0759034,60.6032625 24.6261103,60.433725 24.2971448,60.093825 C23.9681793,59.7543375 23.760869,59.296875 23.6743862,58.7222625 C23.2941103,59.2527375 22.7706621,59.69865 22.104869,60.060825 C21.4386621,60.422175 20.7856966,60.6032625 20.1459724,60.6032625 C19.1946621,60.6032625 18.4336966,60.280275 17.8626621,59.633475 C17.2916276,58.9870875 17.0065241,58.18395 17.0065241,57.222 C17.0065241,55.6499625 17.7265241,54.444225 19.1685931,53.6052 C20.3843172,52.906425 21.8429379,52.5570375 23.544869,52.5570375 L23.544869,50.0234625 Z" id="Fill-21" fill="#000000"></path>
                <path d="M27.5728552,47.4890625 C28.0230621,47.4890625 28.6106483,47.5113375 29.3368552,47.5542375 C30.0638897,47.598375 30.4872,47.619825 30.6084414,47.619825 C30.9887172,47.619825 31.6160276,47.598375 32.4895448,47.5542375 C33.3626483,47.5113375 33.8260966,47.4890625 33.8778207,47.4890625 L33.8778207,48.4039875 L33.6700966,48.4039875 C33.2894069,48.4039875 32.9736828,48.4691625 32.7229241,48.5995125 C32.4721655,48.7311 32.3467862,48.9707625 32.3467862,49.32015 C32.3467862,49.6868625 32.4026483,50.088225 32.5156138,50.52465 C32.6277517,50.9614875 32.7448552,51.381 32.8656828,51.7815375 L34.3445793,58.669875 C34.6387862,57.572625 34.8543724,56.7546375 34.9934069,56.214675 C35.6505103,53.794125 36.0266483,52.3829625 36.1222345,51.9828375 C36.2169931,51.5823 36.3204414,51.116175 36.4334069,50.584875 C36.5455448,50.0539875 36.6022345,49.6051875 36.6022345,49.2397125 C36.6022345,48.9435375 36.5194759,48.7476 36.3556138,48.6514875 C36.1909241,48.5566125 35.9269241,48.4737 35.5640276,48.4039875 L35.5640276,47.436675 C35.8582345,47.47215 36.1909241,47.5022625 36.5629241,47.52825 C36.9349241,47.5542375 37.1989241,47.5674375 37.3545103,47.5674375 C37.6826483,47.5674375 38.0198897,47.5629 38.3662345,47.552175 C38.7117517,47.54145 39.0489931,47.520825 39.3779586,47.4890625 L39.3779586,48.4039875 L39.1963034,48.4039875 C38.7469241,48.5252625 38.4179586,48.855675 38.2106483,49.3948125 C38.0376828,50.05605 37.9077517,50.5428 37.8216828,50.855475 L35.6418207,58.785375 C35.313269,59.915625 34.9934069,61.05495 34.6822345,62.2021125 C34.1798897,63.6805125 33.609269,64.6713375 32.9699586,65.1762375 C32.3294069,65.6803125 31.637131,65.9327625 30.8939586,65.9327625 C30.0982345,65.9327625 29.3976828,65.750025 28.7923034,65.383725 C28.0656828,64.948125 27.7023724,64.36485 27.7023724,63.6339 C27.7023724,63.1285875 27.8281655,62.6929875 28.0789241,62.3275125 C28.329269,61.961625 28.6884414,61.7788875 29.1552,61.7788875 C29.657131,61.7788875 30.0378207,61.926975 30.297269,62.2227375 C30.5567172,62.5189125 30.6862345,62.9190375 30.6862345,63.425175 C30.6862345,63.6339 30.6556138,63.8207625 30.5952,63.9857625 C30.5343724,64.1515875 30.4176828,64.382175 30.245131,64.6787625 C30.4528552,64.7480625 30.7640276,64.783125 31.1794759,64.783125 C31.9400276,64.783125 32.589269,64.1994375 33.1255448,63.0328875 C33.3154759,62.631525 33.6183724,61.709175 34.0334069,60.2641875 L31.4645793,60.2641875 C30.7553379,57.3441 30.0465103,54.4165875 29.3368552,51.479175 C29.0774069,50.2800375 28.9300966,49.6373625 28.8957517,49.5507375 C28.6189241,48.786375 28.1778207,48.4039875 27.5728552,48.4039875 L27.5728552,47.4890625 Z" id="Fill-23" fill="#000000"></path>
                <path d="M39.2404966,56.0053312 L40.3825655,56.0053312 C40.5724966,57.1376437 40.7976,57.9300562 41.0570483,58.3829812 C41.4720828,59.0970187 42.1631172,59.4538312 43.1322207,59.4538312 C43.6519448,59.4538312 44.1013241,59.3148187 44.4820138,59.0359687 C44.8618759,58.7575312 45.0526345,58.3660687 45.0526345,57.8599312 C45.0526345,57.0765937 44.5680828,56.4409312 43.5993931,55.9529437 C42.6302897,55.4657812 41.6798069,54.9864562 40.7458759,54.5166187 C39.7416,53.7675187 39.2404966,52.6966687 39.2404966,51.3032437 C39.2404966,49.9968562 39.7593931,48.9870562 40.7976,48.2726062 C41.7141517,47.6456062 42.8467034,47.3329312 44.1964966,47.3329312 C44.7319448,47.3329312 45.1991172,47.3634562 45.5971862,47.4240937 C45.9948414,47.4855562 46.5228414,47.5936312 47.1803586,47.7503812 L47.1803586,50.9113687 L46.0122207,50.9113687 C46.0122207,50.1626812 45.7958069,49.5530062 45.3638069,49.0827562 C44.9313931,48.6125062 44.3429793,48.3773812 43.5993931,48.3773812 C43.1496,48.3773812 42.7564966,48.5077312 42.4192552,48.7692562 C42.0820138,49.0303687 41.9127724,49.3793437 41.9127724,49.8137062 C41.9127724,50.4064687 42.4403586,50.9464312 43.495531,51.4335937 C45.1213241,52.1826937 46.0987034,52.6880062 46.4272552,52.9491187 C47.4824276,53.7848437 48.0104276,54.9435562 48.0104276,56.4236062 C48.0104276,57.7295812 47.5730483,58.7529937 46.6999448,59.4930187 C45.8268414,60.2334562 44.723669,60.6030562 43.391669,60.6030562 C41.8697379,60.6030562 40.4864276,60.2899687 39.2404966,59.6625562 L39.2404966,56.0053312 Z" id="Fill-25" fill="#000000"></path>
            </g>
        </g>
    </g>
</svg>